<svg width="542" height="323" viewBox="0 0 542 323" fill="none" xmlns="http://www.w3.org/2000/svg">
<path d="M56.1541 14.4089C56.0396 14.7833 55.925 15.1577 48.9781 37.1964C42.0311 59.2351 28.2553 102.927 14.4091 146.808" stroke="#F7DF19" stroke-width="28.81" stroke-linecap="round"/>
<path d="M55.8066 15.5435C63.7874 37.6388 71.4926 64.042 76.8386 87.7941C79.1131 102.889 81.5723 111.074 82.4111 117.112C82.6687 119.697 82.585 121.31 83.2862 124.452" stroke="#F7DF19" stroke-width="28.81" stroke-linecap="round"/>
<path d="M56.8179 101.466C58.3156 101.924 64.4126 102.151 74.0783 101.603C81.6122 99.9932 87.2636 99.2033 91.7042 99.532C93.7839 99.5479 95.5106 99.2572 101.388 97.7298" stroke="#F7DF19" stroke-width="28.81" stroke-linecap="round"/>
<path d="M111.816 19.0295C120.59 33.1784 126.814 44.2643 129.703 52.3631C132.784 61.0007 135.984 81.6992 142.056 107.113C145.308 120.722 144.649 126.661 144.172 130.23C143.946 131.916 145.046 133.395 146.192 131.717C154.882 118.994 155.211 100.25 163.446 86.7754C166.297 82.1108 171.919 82.0966 175.998 80.8692C182.077 79.0399 189.145 81.1502 194.333 83.761C196.808 85.0067 197.825 87.9002 198.468 90.5846C199.764 95.9973 194.567 114.895 186.607 138.926C183.804 147.39 180.608 147.178 177.274 146.58C173.939 145.981 169.821 144.721 168.574 141.883C167.326 139.045 169.075 134.667 170.877 130.155" stroke="#F7DF19" stroke-width="28.81" stroke-linecap="round"/>
<path d="M263.027 56.2162C253.09 63.0652 239.022 98.1806 236.856 118.704C236.397 123.055 242.938 124.517 248.063 125.266C262.98 127.445 277.566 116.573 285.241 109.981C294.998 101.6 300.15 80.8745 300.598 72.6983C301.109 63.3768 287.955 61.3611 282.473 57.6242C276.418 55.7594 266.092 55.8885 254.544 56.4873C250.047 56.7868 248.321 57.0774 246.541 57.3769" stroke="#F7DF19" stroke-width="28.81" stroke-linecap="round"/>
<path d="M335.464 62.6336C337.867 64.1877 340.275 69.8626 342.209 77.6943C345.976 92.9467 354.146 110.907 357.962 120.152C359.824 124.663 363.092 127.739 365.706 129.984C368.215 132.14 372.105 133.4 377.35 133.776C393.119 134.907 404.782 119.872 413.517 106.222C420.094 95.9452 421.065 84.3297 421.104 75.4206C421.119 71.9197 421.798 68.3868 421.875 66.1273C422.188 56.9358 413.762 91.8975 412.69 104.201C412.646 107.711 412.998 111.913 413.138 114.884C413.277 117.855 413.194 119.467 413.107 121.128" stroke="#F7DF19" stroke-width="28.81" stroke-linecap="round"/>
<path d="M460.256 40.0135C458.878 44.5179 457.445 67.9394 459.271 91.111C462.443 131.352 471.232 150.065 474.978 152.663C483.75 151.041 492.311 147.431 493.73 146.221C493.536 144.927 491.488 142.254 489.725 138.364" stroke="#F7DF19" stroke-width="28.81" stroke-linecap="round"/>
<path d="M455.889 90.7897C456.867 90.27 471.965 89.1439 497.587 87.0748C508.615 85.864 515.637 84.327 520.19 83.8216C524.743 83.3161 526.615 83.8888 527.409 84.1318" stroke="#F7DF19" stroke-width="28.81" stroke-linecap="round"/>
<path d="M138.389 196.358C138.427 208.318 144.561 244.725 149.148 267.228C151.863 280.549 155.268 287.11 158.047 290.864C158.921 292.045 160.099 290.3 160.814 288.652C165.139 278.684 165.041 262.059 166.083 251.192C167.176 239.789 167.401 225.955 167.989 217.238C168.165 214.639 168.905 211.55 170.047 209.803C171.19 208.055 172.916 207.765 174.497 208.031C183.052 209.474 189.212 223.445 198.03 241.832C200.702 247.404 204.159 252.784 206.6 254.418C217.957 262.02 223.037 221.088 227.405 212.244C228.118 210.801 230.178 211.212 231.788 212.722C240.081 220.5 242.698 231.123 245.498 240.262C248.182 249.02 252.334 256.405 257.671 267.349C261.969 276.338 265.841 281.245 268.546 284.548C269.723 286.155 270.503 287.622 272 286.864" stroke="#F7DF19" stroke-width="28.81" stroke-linecap="round"/>
<path d="M309.779 236.383C313.546 237.535 322.806 239.549 333.934 238.419C345.751 237.218 355.487 230.142 367.025 220.86C376.988 212.845 377.353 202.065 377.356 199.379C377.359 196.647 371.097 195.585 365.565 194.097C356.136 191.562 343.451 199.485 329.742 207.085C324.787 209.831 322.488 213.78 320.366 218.69C313.658 234.206 320.161 246.979 323.389 256.019C328.196 269.485 333.256 275.8 339.765 286.26C343.837 292.803 350.412 296.781 355.913 299.705C367.312 305.763 381.292 301.29 387.996 296.331C394.062 285.345 395.825 280.921 397.544 277.328C398.431 275.117 399.348 272.122 400.292 269.036" stroke="#F7DF19" stroke-width="28.81" stroke-linecap="round"/>
</svg>
