<svg width="1440" height="645" viewBox="0 0 1440 645" fill="none" xmlns="http://www.w3.org/2000/svg">
<rect y="94.6382" width="1455" height="550.041" fill="#2E8E37"/>
<path d="M9.1167 50.7313C9.1167 53.9434 9.1167 70.8557 10.2292 95.1778C10.6469 104.311 13.5666 106.651 16.5669 105.082C38.7811 93.4611 42.7832 57.3015 49.548 43.4797C51.1246 40.2583 52.5371 37.0067 54.7846 34.9505C57.032 32.8942 59.9986 32.0912 63.0102 34.0866C79.9245 45.2938 82.473 78.1804 88.5073 96.5041C90.9819 104.018 98.2274 112.321 104.959 122.043C107.865 126.241 110.206 128.552 112.836 121.362C128.879 77.4886 122.972 58.9076 126.714 46.3146C127.643 43.187 130.433 41.0462 133.434 41.8128C149.421 45.8972 154.391 68.4953 160.425 81.9156C163.106 87.8779 169.404 92.0752 175.382 95.7254C178.189 97.4392 181.36 96.9664 184.372 94.1558C199.584 79.9587 212.779 52.532 221.106 34.1474C222.442 31.1976 224.825 28.8791 228.567 34.4638C254.139 72.628 254.829 100.982 257.436 107.065C258.559 109.688 262.268 109.134 265.65 106.323C286.629 88.8905 290.765 56.4741 297.507 45.4872C305.031 33.2265 323.712 68.4953 361.065 114.645C368.535 123.875 372.392 122.128 375.033 118.101C388.966 96.8517 388.169 75.9416 393.405 62.9471C394.752 59.6056 396.395 56.4741 398.642 56.024C411.506 53.4472 418.105 80.6625 423.746 94.0828C425.085 97.269 428.578 99.3511 431.589 99.7892C434.601 100.227 437.568 98.6212 439.837 96.1877C450.544 84.7102 452.58 66.1835 458.559 60.5015C461.1 58.0856 464.537 59.6376 467.548 63.2635C483.483 82.4479 487.056 100.982 491.528 105.861C493.708 108.238 498.967 104.315 502.372 100.665C509.22 93.324 512.519 83.2175 517.003 75.9294C519.095 72.529 521.487 70.2474 525.97 72.62C538.775 79.3958 549.198 96.0904 558.547 103.415C572.524 114.365 580.684 78.375 590.786 70.6124C601.607 62.2979 606.889 94.4843 614.396 105.447C616.148 108.006 619.61 108.306 623.363 107.114C640.72 101.599 648.826 84.8479 660.457 70.661C665.773 64.1765 672.065 55.6468 680.29 49.551C683.555 47.1319 687.033 50.6826 690.044 55.5373C704.066 78.1402 708.788 97.6964 713.294 111.518C714.413 114.951 717.014 117.991 720.014 118.04C736.203 118.303 751.399 84.1666 764.592 69.0063C766.559 66.7458 770.188 67.7653 773.199 71.3789C788.474 89.7071 791.156 115.485 802.382 134.964C806.114 141.439 809.158 138.383 811.417 134.332C822.328 114.759 828.666 96.2364 836.88 82.4024C838.704 79.331 843.589 81.5385 847.353 85.9673C856.645 96.8984 863.838 119.549 876.154 128.175C921.611 160.014 904.337 66.1835 906.573 61.706C912.225 50.3899 920.811 85.5293 923.811 99.3512C926.962 113.868 936.543 124.513 940.644 127.774C952.845 137.473 956.77 102.709 969.097 71.5371C971.844 64.5912 972.502 61.341 974.367 60.0878C976.232 58.8346 979.199 59.6376 981.84 61.6574C997.669 73.7639 1009.88 113.027 1025.23 135.755C1030.18 143.094 1032.42 139.211 1033.92 134.745C1042.57 109.102 1053.41 83.2419 1058.65 70.2474C1059.99 66.9059 1061.64 63.7745 1063.88 62.5213C1066.13 61.268 1069.1 62.0711 1070.62 64.4923C1078.01 76.1877 1078.13 91.2235 1081.13 110.277C1082.35 118.047 1084.87 124.513 1088.6 128.175C1090.3 129.837 1093.82 126.216 1096.09 122.968C1105.42 109.619 1108.07 91.3695 1112.6 76.7446C1113.81 72.8148 1114.09 67.8626 1115.96 64.979C1117.82 62.0954 1120.79 61.2924 1124.91 67.7045C1136.76 86.1325 1140.32 108.258 1142.92 115.181C1151.32 137.481 1164.28 71.8534 1169.13 68.1911C1171.31 66.5433 1174.73 70.15 1176.25 77.0123C1177.78 83.8746 1177.78 95.117 1179.27 101.31C1180.75 107.503 1183.72 108.306 1187.84 105.106C1209.19 88.5379 1220.39 64.6505 1234.29 51.9602C1248.2 39.2652 1260.89 75.0169 1271.39 93.2433C1279.76 107.781 1281.88 125.292 1288.63 135.074C1302.81 155.653 1327.55 85.6753 1337.32 73.0823C1341.57 67.5958 1347.06 63.7258 1352.67 62.8984C1365.53 61.001 1372.5 87.1354 1382.27 108.647C1384.65 113.889 1386.75 118.77 1389.38 122.055C1392.01 125.34 1394.97 126.946 1397.62 126.168C1414.23 121.267 1428.69 97.8425 1438.79 90.9194C1442.96 90.4205 1445.18 96.0417 1445.22 100.142C1445.25 104.242 1443.02 106.651 1440.73 109.134" stroke="#2E8E37" stroke-width="62" stroke-linecap="round"/>
<path d="M9 36.3485C9 39.5606 9 56.4729 10.1125 80.795C10.5302 89.928 13.4499 92.2687 16.4502 90.6991C38.6644 79.0783 42.6665 42.9187 49.4313 29.0968C51.0079 25.8755 52.4204 22.6239 54.6679 20.5677C56.9153 18.5114 59.8819 17.7084 62.8935 19.7038C79.8078 30.911 82.3563 63.7975 88.3906 82.1213C90.8652 89.6356 98.1107 97.9385 104.842 107.66C107.748 111.858 110.09 114.169 112.719 106.979C128.762 63.1058 122.855 44.5248 126.597 31.9318C127.526 28.8042 130.316 26.6634 133.317 27.4299C149.304 31.5144 154.274 54.1125 160.309 67.5328C162.989 73.4951 169.287 77.6924 175.265 81.3426C178.072 83.0564 181.243 82.5836 184.255 79.773C199.467 65.5759 212.662 38.1492 220.989 19.7646C222.325 16.8148 224.709 14.4963 228.451 20.081C254.022 58.2452 254.712 86.5988 257.319 92.6824C258.443 95.3048 262.151 94.7508 265.533 91.9402C286.512 74.5077 290.648 42.0913 297.391 31.1044C304.915 18.8437 323.596 54.1125 360.948 100.262C368.418 109.492 372.275 107.745 374.916 103.718C388.849 82.4689 388.052 61.5588 393.289 48.5643C394.635 45.2228 396.278 42.0913 398.525 41.6411C411.389 39.0644 417.988 66.2797 423.629 79.7C424.968 82.8862 428.461 84.9683 431.473 85.4064C434.484 85.8444 437.451 84.2383 439.721 81.8049C450.427 70.3274 452.464 51.8007 458.442 46.1187C460.984 43.7027 464.42 45.2548 467.432 48.8806C483.366 68.0651 486.939 86.5988 491.412 91.4778C493.591 93.8553 498.851 89.9325 502.256 86.2824C509.104 78.9412 512.403 68.8347 516.886 61.5466C518.978 58.1462 521.37 55.8646 525.854 58.2372C538.658 65.013 549.081 81.7076 558.43 89.0322C572.407 99.982 580.567 63.9922 590.67 56.2296C601.49 47.915 606.773 80.1015 614.279 91.0641C616.031 93.6233 619.493 93.9234 623.246 92.731C640.603 87.2167 648.71 70.4651 660.34 56.2782C665.656 49.7937 671.948 41.264 680.174 35.1682C683.438 32.7491 686.916 36.2998 689.928 41.1545C703.949 63.7574 708.671 83.3136 713.177 97.1355C714.296 100.568 716.897 103.608 719.897 103.657C736.086 103.92 751.283 69.7838 764.475 54.6235C766.442 52.363 770.071 53.3825 773.083 56.9961C788.357 75.3243 791.04 101.102 802.266 120.582C805.997 127.057 809.042 124.001 811.3 119.949C822.212 100.376 828.549 81.8536 836.764 68.0195C838.587 64.9482 843.472 67.1557 847.237 71.5845C856.528 82.5156 863.722 105.166 876.038 113.792C921.494 145.632 904.22 51.8007 906.457 47.3232C912.108 36.0071 920.694 71.1464 923.694 84.9684C926.846 99.4853 936.426 110.13 940.528 113.391C952.728 123.09 956.653 88.3265 968.98 57.1543C971.727 50.2084 972.385 46.9582 974.25 45.705C976.116 44.4518 979.082 45.2548 981.723 47.2746C997.552 59.3811 1009.76 98.6443 1025.11 121.372C1030.07 128.711 1032.3 124.828 1033.81 120.363C1042.45 94.719 1053.29 68.8591 1058.53 55.8646C1059.88 52.5231 1061.52 49.3917 1063.77 48.1384C1066.01 46.8852 1068.98 47.6882 1070.51 50.1095C1077.89 61.8049 1078.01 76.8407 1081.01 95.8945C1082.24 103.664 1084.76 110.13 1088.49 113.792C1090.18 115.454 1093.7 111.833 1095.97 108.585C1105.3 95.2361 1107.95 76.9867 1112.48 62.3618C1113.7 58.432 1113.97 53.4798 1115.84 50.5962C1117.7 47.7126 1120.67 46.9096 1124.79 53.3216C1136.65 71.7497 1140.2 93.8747 1142.81 100.798C1151.21 123.098 1164.16 57.4706 1169.01 53.8083C1171.2 52.1604 1174.61 55.7672 1176.14 62.6295C1177.67 69.4918 1177.67 80.7342 1179.15 86.9273C1180.63 93.1203 1183.6 93.9234 1187.72 90.7234C1209.08 74.1551 1220.28 50.2676 1234.18 37.5774C1248.08 24.8823 1260.78 60.634 1271.27 78.8604C1279.64 93.3977 1281.77 110.909 1288.51 120.691C1302.69 141.27 1327.43 71.2925 1337.2 58.6995C1341.45 53.2129 1346.94 49.343 1352.55 48.5156C1365.41 46.6182 1372.38 72.7525 1382.15 94.2641C1384.53 99.5065 1386.63 104.387 1389.26 107.672C1391.89 110.957 1394.86 112.563 1397.5 111.785C1414.12 106.884 1428.57 83.4597 1438.67 76.5366C1442.84 76.0377 1445.07 81.6589 1445.1 85.7592C1445.13 89.8595 1442.91 92.2687 1440.62 94.7508" stroke="#F7DF19" stroke-width="12" stroke-linecap="round"/>
<path d="M1440.1 589.731C1440.1 592.943 1440.1 609.856 1438.99 634.178C1438.57 643.311 1435.65 645.651 1432.65 644.082C1410.44 632.461 1406.43 596.301 1399.67 582.48C1398.09 579.258 1396.68 576.007 1394.43 573.95C1392.18 571.894 1389.22 571.091 1386.21 573.087C1369.29 584.294 1366.74 617.18 1360.71 635.504C1358.23 643.018 1350.99 651.321 1344.26 661.043C1341.35 665.241 1339.01 667.552 1336.38 660.362C1320.34 616.489 1326.24 597.908 1322.5 585.315C1321.57 582.187 1318.78 580.046 1315.78 580.813C1299.8 584.897 1294.83 607.495 1288.79 620.916C1286.11 626.878 1279.81 631.075 1273.83 634.725C1271.03 636.439 1267.86 635.966 1264.84 633.156C1249.63 618.959 1236.44 591.532 1228.11 573.147C1226.77 570.198 1224.39 567.879 1220.65 573.464C1195.08 611.628 1194.39 639.982 1191.78 646.065C1190.66 648.688 1186.95 648.134 1183.57 645.323C1162.59 627.891 1158.45 595.474 1151.71 584.487C1144.18 572.227 1125.5 607.495 1088.15 653.645C1080.68 662.875 1076.82 661.128 1074.18 657.101C1060.25 635.852 1061.05 614.942 1055.81 601.947C1054.46 598.606 1052.82 595.474 1050.57 595.024C1037.71 592.447 1031.11 619.662 1025.47 633.083C1024.13 636.269 1020.64 638.351 1017.63 638.789C1014.62 639.227 1011.65 637.621 1009.38 635.188C998.673 623.71 996.636 605.184 990.658 599.501C988.116 597.086 984.68 598.638 981.668 602.263C965.734 621.448 962.16 639.982 957.688 644.861C955.509 647.238 950.249 643.315 946.844 639.665C939.996 632.324 936.697 622.218 932.213 614.929C930.121 611.529 927.73 609.247 923.246 611.62C910.441 618.396 900.019 635.09 890.669 642.415C876.693 653.365 868.532 617.375 858.43 609.612C847.61 601.298 842.327 633.484 834.821 644.447C833.068 647.006 829.607 647.306 825.853 646.114C808.496 640.599 800.39 623.848 788.759 609.661C783.443 603.177 777.152 594.647 768.926 588.551C765.662 586.132 762.184 589.683 759.172 594.537C745.151 617.14 740.428 636.696 735.922 650.518C734.803 653.951 732.203 656.991 729.202 657.04C713.013 657.303 697.817 623.167 684.625 608.006C682.658 605.746 679.028 606.765 676.017 610.379C660.743 628.707 658.06 654.485 646.834 673.964C643.103 680.439 640.058 677.383 637.799 673.332C626.888 653.759 620.55 635.236 612.336 621.402C610.512 618.331 605.627 620.538 601.863 624.967C592.572 635.898 585.378 658.549 573.062 667.175C527.605 699.014 544.879 605.184 542.643 600.706C536.991 589.39 528.405 624.529 525.405 638.351C522.254 652.868 512.673 663.513 508.572 666.774C496.372 676.473 492.447 641.709 480.119 610.537C477.373 603.591 476.715 600.341 474.849 599.088C472.984 597.835 470.017 598.638 467.376 600.657C451.548 612.764 439.34 652.027 423.99 674.755C419.033 682.094 416.798 678.211 415.292 673.745C406.645 648.102 395.807 622.242 390.57 609.247C389.224 605.906 387.581 602.774 385.334 601.521C383.086 600.268 380.12 601.071 378.592 603.492C371.21 615.188 371.085 630.224 368.085 649.277C366.861 657.047 364.343 663.513 360.612 667.175C358.919 668.837 355.398 665.216 353.128 661.968C343.801 648.619 341.149 630.37 336.621 615.745C335.404 611.815 335.126 606.863 333.261 603.979C331.395 601.095 328.429 600.292 324.305 606.704C312.452 625.133 308.899 647.258 306.292 654.181C297.894 676.481 284.941 610.853 280.086 607.191C277.902 605.543 274.49 609.15 272.962 616.012C271.434 622.875 271.434 634.117 269.951 640.31C268.467 646.503 265.501 647.306 261.377 644.106C240.024 627.538 228.823 603.65 214.922 590.96C201.017 578.265 188.324 614.017 177.828 632.243C169.457 646.781 167.333 664.292 160.59 674.074C146.407 694.653 121.665 624.675 111.9 612.082C107.645 606.596 102.157 602.726 96.5498 601.898C83.6897 600.001 76.7162 626.135 66.951 647.647C64.5713 652.889 62.4675 657.77 59.838 661.055C57.2085 664.34 54.2419 665.946 51.6012 665.168C34.9829 660.267 20.5304 636.842 10.4281 629.919C6.25909 629.421 4.03408 635.042 4.00037 639.142C3.96665 643.242 6.19172 645.651 8.48413 648.134" stroke="#2E8E37" stroke-width="132" stroke-linecap="round"/>
<path d="M1440.22 575.348C1440.22 578.561 1440.22 595.473 1439.1 619.795C1438.69 628.928 1435.77 631.269 1432.77 629.699C1410.55 618.078 1406.55 581.919 1399.78 568.097C1398.21 564.876 1396.8 561.624 1394.55 559.568C1392.3 557.511 1389.33 556.708 1386.32 558.704C1369.41 569.911 1366.86 602.798 1360.83 621.121C1358.35 628.636 1351.11 636.939 1344.37 646.66C1341.47 650.858 1339.13 653.169 1336.5 645.979C1320.45 602.106 1326.36 583.525 1322.62 570.932C1321.69 567.804 1318.9 565.663 1315.9 566.43C1299.91 570.514 1294.94 593.113 1288.91 606.533C1286.23 612.495 1279.93 616.692 1273.95 620.343C1271.14 622.056 1267.97 621.584 1264.96 618.773C1249.75 604.576 1236.55 577.149 1228.23 558.765C1226.89 555.815 1224.51 553.496 1220.77 559.081C1195.19 597.245 1194.5 625.599 1191.9 631.682C1190.77 634.305 1187.07 633.751 1183.68 630.94C1162.7 613.508 1158.57 581.091 1151.83 570.104C1144.3 557.844 1125.62 593.113 1088.27 639.262C1080.8 648.492 1076.94 646.745 1074.3 642.718C1060.37 621.469 1061.16 600.559 1055.93 587.564C1054.58 584.223 1052.94 581.091 1050.69 580.641C1037.83 578.064 1031.23 605.28 1025.59 618.7C1024.25 621.886 1020.76 623.968 1017.74 624.406C1014.73 624.844 1011.77 623.238 1009.5 620.805C998.789 609.327 996.753 590.801 990.774 585.119C988.233 582.703 984.796 584.255 981.785 587.881C965.85 607.065 962.277 625.599 957.805 630.478C955.625 632.855 950.366 628.933 946.961 625.282C940.113 617.941 936.814 607.835 932.33 600.547C930.238 597.146 927.846 594.865 923.363 597.237C910.558 604.013 900.135 620.708 890.786 628.032C876.809 638.982 868.649 602.992 858.547 595.23C847.726 586.915 842.444 619.102 834.937 630.064C833.185 632.623 829.723 632.923 825.97 631.731C808.613 626.217 800.507 609.465 788.876 595.278C783.56 588.794 777.268 580.264 769.043 574.168C765.778 571.749 762.3 575.3 759.289 580.154C745.267 602.757 740.545 622.314 736.039 636.135C734.92 639.568 732.319 642.608 729.319 642.657C713.13 642.92 697.934 608.784 684.741 593.624C682.774 591.363 679.145 592.382 676.134 595.996C660.859 614.324 658.177 640.102 646.951 659.582C643.219 666.057 640.175 663.001 637.916 658.949C627.005 639.376 620.667 620.854 612.453 607.02C610.629 603.948 605.744 606.156 601.98 610.584C592.688 621.516 585.495 644.166 573.179 652.792C527.722 684.632 544.996 590.801 542.76 586.323C537.108 575.007 528.522 610.146 525.522 623.968C522.371 638.485 512.79 649.13 508.689 652.391C496.488 662.09 492.563 627.327 480.236 596.154C477.489 589.208 476.831 585.958 474.966 584.705C473.101 583.452 470.134 584.255 467.493 586.275C451.664 598.381 439.456 637.644 424.106 660.372C419.15 667.711 416.915 663.828 415.409 659.363C406.761 633.719 395.924 607.859 390.687 594.865C389.34 591.523 387.698 588.392 385.451 587.138C383.203 585.885 380.237 586.688 378.708 589.11C371.326 600.805 371.202 615.841 368.202 634.894C366.978 642.664 364.46 649.13 360.729 652.792C359.035 654.454 355.515 650.833 353.245 647.585C343.918 634.236 341.266 615.987 336.737 601.362C335.521 597.432 335.243 592.48 333.377 589.596C331.512 586.713 328.546 585.91 324.422 592.322C312.569 610.75 309.015 632.875 306.408 639.798C298.011 662.098 285.058 596.471 280.203 592.808C278.019 591.16 274.607 594.767 273.079 601.63C271.55 608.492 271.551 619.734 270.067 625.927C268.584 632.12 265.617 632.923 261.493 629.723C240.14 613.155 228.939 589.268 215.039 576.577C201.133 563.882 188.44 599.634 177.945 617.86C169.574 632.398 167.449 649.909 160.707 659.691C146.523 680.27 121.782 610.292 112.016 597.7C107.762 592.213 102.274 588.343 96.6665 587.516C83.8064 585.618 76.8329 611.753 67.0677 633.264C64.688 638.507 62.5842 643.387 59.9547 646.672C57.3252 649.957 54.3586 651.563 51.7179 650.785C35.0996 645.884 20.6471 622.46 10.5448 615.537C6.37579 615.038 4.15078 620.659 4.11707 624.759C4.08335 628.86 6.30842 631.269 8.60083 633.751" stroke="#F7DF19" stroke-width="12" stroke-linecap="round"/>
</svg>
