<svg width="193" height="193" viewBox="0 0 193 193" fill="none" xmlns="http://www.w3.org/2000/svg">
<path d="M98.9939 78.8647C90.4152 91.7139 89.9079 98.2786 89.2795 104.949C88.5159 113.054 89.4006 119.237 90.4039 121.376C91.7276 124.198 97.9415 125.052 105.002 124.553C113.484 123.952 118.408 114.225 121.319 108.796C125.09 101.764 126.252 96.8097 125.752 92.5241C121.474 87.4586 116.424 83.4229 109.254 79.7619C106.354 78.8723 102.356 78.1227 95.9653 77.3503" stroke="#F7DF19" stroke-width="16.5287" stroke-linecap="round"/>
<path d="M104.294 75.0788C103.295 70.0815 103.03 60.7607 105.032 47.5404C107.045 34.2559 116.878 23.3942 122.928 14.8154C127.921 7.73492 137.322 8.20533 144.651 8.31512C154.215 8.45837 151.239 30.3753 151.867 35.808C152.87 44.477 149.982 49.0623 147.589 53.1057C144.386 58.5193 139.139 65.4627 133.975 71.7662C131.979 74.2028 129.584 78.0318 129.421 79.9626C129.182 82.7949 144.818 80.1443 164.224 77.4942C184.859 74.6763 190.582 80.1064 196.9 84.021C206.146 89.7489 202.727 108.349 199.588 114.936C196.976 120.418 182.631 118.995 170.339 117.613C162.214 116.7 154.798 116.224 149.388 114.967C131.945 110.914 116.901 109.152 119.544 109.526C127.743 110.689 136.065 120.721 139.495 128.304C142.747 135.493 141.396 142.679 142.024 151.141C142.708 160.35 140.396 165.409 137.371 171.092C134.304 176.854 124.798 181.795 113.543 183.862C106.73 185.113 100.539 175.813 95.4769 171.38C91.9119 168.257 89.6656 163.941 88.3974 156.759C86.4421 145.687 88.1361 133.911 90.6537 128.982C91.2784 127.759 92.1643 126.839 92.8003 125.824C93.4363 124.81 93.9361 123.81 90.1956 123.296C86.4552 122.781 78.4595 122.781 64.4707 121.032C50.482 119.283 30.7425 115.784 20.1988 113.483C9.65522 111.181 8.90561 110.181 8.51945 108.542C8.13329 106.903 8.13329 104.654 8.88289 102.496C9.6325 100.338 11.1317 98.3391 12.9035 96.8096C16.3403 93.8428 28.2287 93.2509 43.3645 93.3759C54.0666 93.4642 65.3528 95.2575 75.2074 95.901C82.3082 96.3648 70.2366 85.6944 65.3187 78.1378C59.9792 69.9333 53.5788 59.1933 52.5566 52.8974C51.8612 48.614 51.2921 44.3073 51.7919 40.9038C52.1731 38.3072 55.5702 37.4776 58.5875 36.7204C67.5146 34.4802 75.249 42.7627 83.0631 52.9542C88.3784 57.6487 92.9214 62.6915 95.4504 68.87C96.2076 70.5206 97.207 72.0198 98.994 74.3216" stroke="#F7DF19" stroke-width="16.5287" stroke-linecap="round"/>
</svg>
