<svg width="113" height="46" viewBox="0 0 113 46" fill="none" xmlns="http://www.w3.org/2000/svg">
<path d="M24.8872 39.5781C29.0425 38.193 46.419 37.4794 71.5813 37.1332C81.5078 36.7869 85.663 36.0944 89.5349 35.7376C93.4069 35.3809 96.8696 35.3809 100.437 35.3809" stroke="#F7DF19" stroke-width="12" stroke-linecap="round"/>
<path d="M64.7607 29.0848C71.6862 18.0041 78.024 12.2959 84.2988 11.9496C87.8035 11.6033 91.9588 10.9108 95.4844 10.2077C99.0101 9.50468 101.78 8.81215 106.733 8.09863" stroke="#F7DF19" stroke-width="12" stroke-linecap="round"/>
<path d="M68.9584 31.1834C61.991 24.9085 50.8264 16.5351 34.048 10.2182C29.8193 8.81215 26.3566 7.42706 21.8026 6.71353C17.2486 6 11.7082 6 6 6" stroke="#F7DF19" stroke-width="12" stroke-linecap="round"/>
</svg>
