<svg width="136" height="71" viewBox="0 0 136 71" fill="none" xmlns="http://www.w3.org/2000/svg">
<path d="M47.9722 52.1694C48.6647 52.1694 49.3572 52.1694 54.5618 52.1694C59.7663 52.1694 69.462 52.1694 75.8417 53.2082C82.2215 54.2471 84.9917 56.3247 92.043 64.7611" stroke="#F7DF19" stroke-width="12" stroke-linecap="round"/>
<path d="M77.3525 58.4649C77.3525 48.7693 79.4301 40.3119 83.9631 34.0265C98.2757 24.9081 114.393 19.9974 121.025 18.9481C124.194 18.5913 126.964 18.5913 129.818 18.5913" stroke="#F7DF19" stroke-width="12" stroke-linecap="round"/>
<path d="M79.4514 60.564C74.5616 53.5966 70.3854 39.6618 61.2984 21.8026C57.8885 15.1009 52.904 10.9108 46.2724 8.4659C43.1035 7.4061 40.3333 6.71354 33.7122 6.35677C27.0911 6 16.7029 6 6 6" stroke="#F7DF19" stroke-width="12" stroke-linecap="round"/>
</svg>
