<svg width="155" height="63" viewBox="0 0 155 63" fill="none" xmlns="http://www.w3.org/2000/svg">
<path d="M73.1558 56.3667C75.2334 56.3667 77.311 56.3667 80.8051 56.0204C84.2993 55.6742 89.1472 54.9816 100.648 54.6248C112.148 54.2681 130.154 54.2681 148.706 54.2681" stroke="#F7DF19" stroke-width="12" stroke-linecap="round"/>
<path d="M106.734 52.1697C113.659 42.4741 119.997 36.7869 126.272 34.6987C129.777 33.3032 133.932 31.2255 137.458 29.8089C140.983 28.3924 143.753 27.6998 146.608 26.9863" stroke="#F7DF19" stroke-width="12" stroke-linecap="round"/>
<path d="M100.438 47.9723C100.438 46.5872 98.36 43.1035 93.4807 37.1749C87.2164 30.5538 76.0308 23.5234 55.4854 15.853C42.5579 11.6453 24.5518 6.79746 6 6" stroke="#F7DF19" stroke-width="12" stroke-linecap="round"/>
</svg>
