<svg width="210" height="193" viewBox="0 0 210 193" fill="none" xmlns="http://www.w3.org/2000/svg">
<path d="M151.406 104.146C148.014 98.1095 144.622 92.0729 136.965 81.9807C129.307 71.8885 117.486 57.9238 110.271 49.6566C101.017 39.0534 94.6179 34.7366 88.1948 31.1517C84.7157 29.2099 77.2228 29.5203 66.3232 29.8217C53.5531 30.1749 46.2619 33.2032 41.7015 35.0041C40.1397 35.6209 36.7382 37.0937 30.7745 41.7777C21.5994 48.9839 18.4188 57.4009 17.9324 60.1838C16.9355 65.8866 18.4316 73.092 24.2205 86.6614C27.0717 93.3446 33.3512 102.114 40.4955 110.419C44.0465 114.547 51.2572 117.323 61.637 120.669C75.7523 125.219 85.7148 126.534 89.1753 127.978C94.4928 130.197 101.871 129.924 108.681 129.555C114.019 129.265 117.44 130.414 124.061 129.396C139.586 127.009 150.629 124.064 152.367 123.211C157.791 120.552 165.454 117.471 171.457 115.735C178.874 113.589 185.787 112.487 191.198 111.013C193.579 110.364 195.802 111.13 196.376 111.665C202.279 117.168 186.988 128.147 184.644 132.807C182.376 137.316 180.646 140.774 180.322 146.63C180.077 151.047 177.632 154.193 176.165 156.55C175.248 158.023 173.729 159.896 172.174 158.11C169.01 150.782 166.895 141.701 165.598 134.838C164.757 131.346 163.545 127.833 161.883 123.898" stroke="#F7DF19" stroke-width="8.30645" stroke-linecap="round"/>
<path d="M66.4723 58.4551C66.2642 58.7284 65.9753 60.2421 65.9734 62.5304C65.9726 63.4632 66.6998 63.8619 67.3619 63.7184C68.785 62.8588 70.4015 61.0278 71.4251 58.9744C71.6163 58.0143 71.141 57.2207 70.2372 56.0878" stroke="#F7DF19" stroke-width="8.30645" stroke-linecap="round"/>
<path d="M104.203 44.8312C106.914 45.5159 114.425 46.5944 121.474 48.9379C123.752 49.6951 127.01 50.1573 128.404 51.4201C133.162 55.7325 135.079 62.7649 140.357 66.5468C141.052 69.5971 140.221 73.1586 138.72 76.6487C138.037 78.4619 137.511 80.3605 138.061 84.5417" stroke="#F7DF19" stroke-width="8.30645" stroke-linecap="round"/>
</svg>
