<svg width="409" height="368" viewBox="0 0 409 368" fill="none" xmlns="http://www.w3.org/2000/svg">
<path d="M81.0386 182.254C86.2389 182.254 99.0128 181.103 118.444 179.933C143.561 178.422 184.906 173.564 224.737 167.753C250.524 163.991 287.272 155.555 317.121 151.14C322.959 150.843 329.293 150.843 338.027 149.979C346.762 149.115 357.703 147.388 374.211 145.608" stroke="#F7DF19" stroke-width="12" stroke-linecap="round"/>
<path d="M79.2935 180.509C81.0211 183.982 89.1356 192.096 94.9817 201.415C100.518 210.241 105.435 222.321 112.136 232.827C117.812 241.725 124.037 250.277 131.908 256.978C147.812 270.52 186.267 259.631 200.794 257.589C226.773 253.938 240.922 254.396 255.494 252.354C268.277 250.563 282.211 246.264 298.248 243.053C309.282 240.844 319.486 237.538 328.805 234.615C337.97 231.74 347.407 229.965 356.726 227.635C367.962 224.826 384.019 216.039 394.83 208.169C398.608 203.823 400.963 198.571 401.836 185.858C402.133 176.024 402.133 159.324 402.133 142.117" stroke="#F7DF19" stroke-width="12" stroke-linecap="round"/>
<path d="M246.821 161.313C246.821 154.961 245.669 135.242 241.603 113.978C239.154 101.174 235.792 88.6833 233.741 76.7208C231.221 62.0145 228.218 50.85 226.176 39.7862C225.88 36.2961 225.88 31.6891 225.304 27.3002C224.728 22.9113 223.576 18.8802 220.645 9.4917" stroke="#F7DF19" stroke-width="12" stroke-linecap="round"/>
<path d="M206.684 6.00146C231.674 12.3884 242.109 15.8786 262.396 19.3688C273.804 21.3315 294.113 19.9621 303.632 20.8259C313.151 21.6897 311.424 23.4174 309.382 24.8832C300.383 31.344 288.179 36.2262 279.716 44.0703C270.656 52.4671 262.562 64.1125 255.86 75.473C253.243 80.4116 250.904 85.0884 248.296 89.4423C246.838 91.4928 245.111 93.2205 243.331 95.0005" stroke="#F7DF19" stroke-width="12" stroke-linecap="round"/>
<path d="M122.92 175.274C113.636 169.48 103.201 161.348 89.2402 145.966C75.2319 130.53 67.1127 123.55 58.0993 115.392C46.2737 104.688 33.9562 98.5256 24.6549 92.697C21.7407 90.952 18.2854 88.6485 15.0657 86.0221C11.846 83.3958 8.96663 80.5164 6 77.5498" stroke="#F7DF19" stroke-width="12" stroke-linecap="round"/>
<path d="M9.49015 82.7849C9.49015 97.2865 16.4006 116.988 22.8574 133.619C30.5591 153.456 17.6571 164.175 17.3343 173.494C16.9513 184.55 23.4507 199.6 18.8263 216.798C15.535 229.038 8.33838 236.91 7.74502 242.128C5.58045 261.162 36.1898 271.812 44.9501 280.52C57.5377 293.032 32.1761 315.439 33.0399 319.793C35.6926 333.163 57.759 336.38 59.5041 341.309C60.0974 343.936 60.0974 346.815 59.8095 349.45C59.5215 352.085 58.9456 354.389 58.3522 361.997" stroke="#F7DF19" stroke-width="12" stroke-linecap="round"/>
<path d="M368.977 147.353C370.128 147.353 373.025 147.353 377.667 147.065C380.005 146.777 382.309 146.201 384.935 145.328C387.562 144.456 390.441 143.304 395.153 142.117" stroke="#F7DF19" stroke-width="12" stroke-linecap="round"/>
<path d="M107.215 198.396C107.215 199.548 107.215 205.9 107.791 212.61C108.093 216.129 111.857 203.073 113.89 200.735C119.737 194.009 117.092 224.503 120.285 232.705C124.826 244.365 134.543 209.495 138.033 200.176C138.879 197.917 138.626 195.534 138.626 196.939C138.626 211.757 140.371 222.199 143.268 234.415C143.958 237.325 143.861 239.65 145.301 240.549C146.741 241.447 149.62 240.872 151.679 239.135C160.947 231.32 163.616 217.069 167.106 217.269C173.172 217.618 168.293 241.081 169.732 248.838C171.172 256.595 174.051 253.715 177.838 247.625C194.149 221.393 195.027 207.192 197.95 199.278C202.498 186.963 202.007 237.835 204.634 249.274C208.384 265.61 227.59 206.598 231.682 194.086C232.914 190.322 234.571 185.692 235.749 185.047C243.627 180.728 240.975 213.369 246.202 235.191C247.888 242.233 250.276 240.313 251.742 237.983C258.649 227.007 259.595 210.682 263.094 192.655C265.263 181.48 267.762 173.407 268.338 171.356C274.097 150.851 279.978 225.113 281.129 230.645C284.279 245.775 298.58 189.147 300.613 179.27C301.941 172.82 302.663 192.934 304.103 223.22C305.074 243.642 321.266 181.556 323.875 178.058C324.821 176.788 327.06 179.166 328.526 181.783C340.171 202.579 341.055 233.856 341.919 236.483C349.555 259.7 356.168 168.189 359.064 165.249C374.783 149.293 371.297 203.021 373.322 204.792C390.809 220.093 388.172 160.04 388.748 156.532C391.001 142.81 395.153 189.601 394.865 198.92C394.693 204.489 383.565 185.064 373.374 175.745C369.209 171.936 367.249 167.002 364.055 165.537C346.347 157.408 334.11 209.966 327.435 215.245C318.452 222.349 317.217 191.468 315.184 182.464C314.321 178.638 313.727 176.339 309.975 183.214C306.223 190.09 299.313 206.214 293.737 209.914C284.508 216.038 276.522 188.572 269.847 178.398C267.099 174.208 263.748 173.407 260.537 175.405C242.519 186.617 235.269 214.556 223.009 234.729C216.579 245.31 215.427 207.174 212.234 198.169C210.865 194.312 209.616 192.044 206.143 197.48C202.671 202.916 196.912 216.161 192.793 221.833C188.675 227.504 186.372 225.201 184.321 221.999C179.92 215.126 177.611 207.733 174.427 203.946C172.994 202.242 169.514 204.19 167.743 205.935C160.504 213.067 160.16 223.386 158.415 225.436C157.822 222.304 157.246 217.034 155.798 214.983C154.925 215.236 153.774 218.116 149.097 226.318" stroke="#F7DF19" stroke-width="12" stroke-linecap="round"/>
</svg>
