<svg width="414" height="44" viewBox="0 0 414 44" fill="none" xmlns="http://www.w3.org/2000/svg">
<path d="M11.4087 16.9782C17.8569 16.3379 28.6301 13.8542 44.1279 11.5092C48.6366 10.827 52.8483 10.925 56.1231 10.6022C59.398 10.2794 61.6401 9.79035 106.252 8.7645C150.864 7.73865 237.777 6.19079 293.947 6.01647C350.117 5.84215 372.909 7.08827 386.033 8.05043C401.96 9.21807 405.858 11.181 407.481 13.3309C408.317 14.4395 407.965 16.2816 407.096 17.3943C401.695 24.3113 389.418 25.8619 379.808 28.5284C359.087 34.2779 342.355 32.0487 329.345 32.3555C311.323 32.7805 300.124 32.459 290.498 32.8681C287.407 32.9995 284.016 33.094 273.821 33.2075C251.111 33.4603 234.258 32.4329 229.904 32.723C224.736 33.0675 220.181 32.8508 205.4 32.8257C192.295 32.8034 167.819 31.8326 154.366 31.7042C139.223 31.5596 129.971 32.6538 117.041 32.963C108.524 33.1667 90.9095 34.0036 67.5816 33.9984C51.3122 33.9947 45.7197 36.2902 36.4516 36.5751C29.6861 36.7832 21.5188 37.5325 14.3708 36.8987C11.6384 36.6564 10.8642 35.5398 10.0553 34.2498C6.64414 28.8098 5.86826 23.8639 6.01722 18.3801C6.0743 16.2785 10.0009 16.6572 12.2475 16.5817C17.093 16.4189 19.6262 23.6725 22.2927 28.6803C22.9058 29.8316 24.2014 30.2904 25.8996 29.9325C34.7485 28.0679 37.7067 21.1567 40.1052 20.6597C46.6289 19.308 47.6013 28.7538 50.1045 29.3948C58.9685 31.6645 66.4596 18.9298 68.4323 18.7027C73.395 18.1311 75.4944 26.7794 79.0932 28.4364C87.2796 32.2057 106.026 19.0296 115.004 17.5758C120.819 16.6343 120.204 27.271 121.917 31.1405C123.93 35.6844 129.408 20.3104 135.029 11.0395C138.338 5.58102 141.336 25.9611 144.108 26.8929C151.783 29.4717 156.416 19.9798 162.019 15.9181C163.783 14.639 166.018 18.8275 168.045 21.4156C176.57 32.3019 208.022 14.774 214.348 15.2353C220.821 15.7074 222.56 27.2785 224.721 30.7355C228.46 36.7173 235.871 14.5195 240.901 11.5457C247.212 7.81468 247.334 26.6272 250.486 29.1144C251.832 30.1766 253.418 29.646 254.851 28.989C265.072 24.3037 274.183 13.1217 276.464 11.9251C277.535 11.3633 278.719 11.563 279.663 13.1229C284.684 21.4173 284.751 26.3582 287.229 27.8421C295.609 32.861 306.458 14.9499 314.564 11.6726C316.323 10.9614 317.528 11.6061 318.484 12.753C323.287 18.5105 325.305 24.4799 329.009 27.4224C332.361 30.0858 336.381 20.3601 340.306 16.6737C341.191 15.8422 341.634 14.6131 342.498 13.9263C344.215 12.5621 347.308 12.7936 350.089 13.713C355.597 15.5332 352.903 23.3486 355.502 25.2665C364.384 31.8191 369.501 13.4816 372.65 11.6026C374.821 14.7393 378.04 19.3251 382.473 21.7287C383.602 21.7713 384.731 21.2486 385.895 20.7101" stroke="#F7DF19" stroke-width="12" stroke-linecap="round"/>
</svg>
