<svg width="1339" height="680" viewBox="0 0 1339 680" fill="none" xmlns="http://www.w3.org/2000/svg">
<mask id="path-1-outside-1_116_3" maskUnits="userSpaceOnUse" x="-0.365234" y="-0.439453" width="1339" height="681" fill="black">
<rect fill="white" x="-0.365234" y="-0.439453" width="1339" height="681"/>
<path d="M182.552 251.871H125.935V317.561H38.8327V45.3653H176.019C238.443 45.3653 269.654 78.8755 269.654 145.896C269.654 160.655 268.203 174.446 265.299 187.27C262.396 200.093 257.436 211.344 250.419 221.022C243.645 230.458 234.692 237.959 223.563 243.523C212.675 249.088 199.005 251.871 182.552 251.871ZM145.896 115.047H125.935V182.189H145.896C156.542 182.189 164.164 181.1 168.761 178.922C173.6 176.745 176.019 171.664 176.019 163.679V133.194C176.019 125.451 173.6 120.491 168.761 118.314C164.164 116.136 156.542 115.047 145.896 115.047ZM282.723 181.826C282.723 156.905 284.779 135.492 288.892 117.588C293.247 99.4414 300.385 84.5614 310.305 72.9477C320.467 61.3341 333.774 52.7448 350.227 47.1799C366.68 41.615 387.004 38.8326 411.199 38.8326C435.636 38.8326 455.96 41.615 472.17 47.1799C488.623 52.7448 501.809 61.3341 511.729 72.9477C521.891 84.5614 529.029 99.4414 533.142 117.588C537.497 135.492 539.675 156.905 539.675 181.826C539.675 205.537 537.739 226.345 533.868 244.249C529.997 261.912 523.101 276.671 513.181 288.526C503.503 300.382 490.317 309.334 473.622 315.383C457.169 321.19 436.362 324.093 411.199 324.093C386.036 324.093 365.107 321.19 348.412 315.383C331.96 309.334 318.773 300.382 308.853 288.526C299.175 276.671 292.401 261.912 288.529 244.249C284.658 226.345 282.723 205.537 282.723 181.826ZM376.358 136.46V249.693H412.65C424.748 249.693 433.337 248.362 438.418 245.701C443.741 242.798 446.403 236.386 446.403 226.466V113.233H409.747C398.133 113.233 389.665 114.684 384.342 117.588C379.019 120.249 376.358 126.54 376.358 136.46ZM760.283 226.829L807.464 317.561H711.651L676.084 236.628H657.212V317.561H570.11V45.3653H707.296C769.72 45.3653 800.931 77.1819 800.931 140.815C800.931 184.366 787.382 213.038 760.283 226.829ZM677.173 115.047H657.212V169.486H677.173C687.819 169.486 695.44 168.398 700.038 166.22C704.877 164.042 707.296 159.082 707.296 151.34V133.194C707.296 125.451 704.877 120.491 700.038 118.314C695.44 116.136 687.819 115.047 677.173 115.047ZM1031.85 45.3653V115.047H968.706V317.561H881.603V115.047H818.454V45.3653H1031.85ZM1042.6 181.826C1042.6 156.905 1044.66 135.492 1048.77 117.588C1053.13 99.4414 1060.26 84.5614 1070.18 72.9477C1080.35 61.3341 1093.65 52.7448 1110.11 47.1799C1126.56 41.615 1146.88 38.8326 1171.08 38.8326C1195.51 38.8326 1215.84 41.615 1232.05 47.1799C1248.5 52.7448 1261.69 61.3341 1271.61 72.9477C1281.77 84.5614 1288.91 99.4414 1293.02 117.588C1297.38 135.492 1299.55 156.905 1299.55 181.826C1299.55 205.537 1297.62 226.345 1293.75 244.249C1289.88 261.912 1282.98 276.671 1273.06 288.526C1263.38 300.382 1250.2 309.334 1233.5 315.383C1217.05 321.19 1196.24 324.093 1171.08 324.093C1145.91 324.093 1124.99 321.19 1108.29 315.383C1091.84 309.334 1078.65 300.382 1068.73 288.526C1059.05 276.671 1052.28 261.912 1048.41 244.249C1044.54 226.345 1042.6 205.537 1042.6 181.826ZM1136.24 136.46V249.693H1172.53C1184.63 249.693 1193.22 248.362 1198.3 245.701C1203.62 242.798 1206.28 236.386 1206.28 226.466V113.233H1169.63C1158.01 113.233 1149.54 114.684 1144.22 117.588C1138.9 120.249 1136.24 126.54 1136.24 136.46ZM304.349 468.703V533.667H230.312V634.561H143.21V362.365H321.77L310.882 432.047H230.312V468.703H304.349ZM335 498.826C335 473.905 337.056 452.492 341.169 434.588C345.524 416.441 352.662 401.561 362.582 389.948C372.744 378.334 386.051 369.745 402.504 364.18C418.957 358.615 439.281 355.833 463.476 355.833C487.913 355.833 508.237 358.615 524.448 364.18C540.9 369.745 554.087 378.334 564.007 389.948C574.169 401.561 581.306 416.441 585.419 434.588C589.774 452.492 591.952 473.905 591.952 498.826C591.952 522.537 590.016 543.345 586.145 561.249C582.274 578.912 575.378 593.671 565.458 605.526C555.78 617.382 542.594 626.334 525.899 632.383C509.447 638.19 488.639 641.093 463.476 641.093C438.313 641.093 417.384 638.19 400.689 632.383C384.237 626.334 371.05 617.382 361.13 605.526C351.452 593.671 344.678 578.912 340.806 561.249C336.935 543.345 335 522.537 335 498.826ZM428.635 453.46V566.693H464.927C477.025 566.693 485.614 565.362 490.695 562.701C496.018 559.798 498.68 553.386 498.68 543.466V430.233H462.024C450.41 430.233 441.942 431.684 436.619 434.588C431.296 437.249 428.635 443.54 428.635 453.46ZM796.592 564.879V634.561H622.387V362.365H709.489V564.879H796.592ZM907.611 634.561H820.508V362.365H907.611V634.561ZM938.224 498.826C938.224 473.905 940.281 452.492 944.394 434.588C948.749 416.441 955.886 401.561 965.806 389.948C975.968 378.334 989.276 369.745 1005.73 364.18C1022.18 358.615 1042.51 355.833 1066.7 355.833C1091.14 355.833 1111.46 358.615 1127.67 364.18C1144.12 369.745 1157.31 378.334 1167.23 389.948C1177.39 401.561 1184.53 416.441 1188.64 434.588C1193 452.492 1195.18 473.905 1195.18 498.826C1195.18 522.537 1193.24 543.345 1189.37 561.249C1185.5 578.912 1178.6 593.671 1168.68 605.526C1159 617.382 1145.82 626.334 1129.12 632.383C1112.67 638.19 1091.86 641.093 1066.7 641.093C1041.54 641.093 1020.61 638.19 1003.91 632.383C987.461 626.334 974.275 617.382 964.355 605.526C954.677 593.671 947.902 578.912 944.031 561.249C940.16 543.345 938.224 522.537 938.224 498.826ZM1031.86 453.46V566.693H1068.15C1080.25 566.693 1088.84 565.362 1093.92 562.701C1099.24 559.798 1101.9 553.386 1101.9 543.466V430.233H1065.25C1053.63 430.233 1045.17 431.684 1039.84 434.588C1034.52 437.249 1031.86 443.54 1031.86 453.46Z"/>
</mask>
<path d="M182.552 251.871H125.935V317.561H38.8327V45.3653H176.019C238.443 45.3653 269.654 78.8755 269.654 145.896C269.654 160.655 268.203 174.446 265.299 187.27C262.396 200.093 257.436 211.344 250.419 221.022C243.645 230.458 234.692 237.959 223.563 243.523C212.675 249.088 199.005 251.871 182.552 251.871ZM145.896 115.047H125.935V182.189H145.896C156.542 182.189 164.164 181.1 168.761 178.922C173.6 176.745 176.019 171.664 176.019 163.679V133.194C176.019 125.451 173.6 120.491 168.761 118.314C164.164 116.136 156.542 115.047 145.896 115.047ZM282.723 181.826C282.723 156.905 284.779 135.492 288.892 117.588C293.247 99.4414 300.385 84.5614 310.305 72.9477C320.467 61.3341 333.774 52.7448 350.227 47.1799C366.68 41.615 387.004 38.8326 411.199 38.8326C435.636 38.8326 455.96 41.615 472.17 47.1799C488.623 52.7448 501.809 61.3341 511.729 72.9477C521.891 84.5614 529.029 99.4414 533.142 117.588C537.497 135.492 539.675 156.905 539.675 181.826C539.675 205.537 537.739 226.345 533.868 244.249C529.997 261.912 523.101 276.671 513.181 288.526C503.503 300.382 490.317 309.334 473.622 315.383C457.169 321.19 436.362 324.093 411.199 324.093C386.036 324.093 365.107 321.19 348.412 315.383C331.96 309.334 318.773 300.382 308.853 288.526C299.175 276.671 292.401 261.912 288.529 244.249C284.658 226.345 282.723 205.537 282.723 181.826ZM376.358 136.46V249.693H412.65C424.748 249.693 433.337 248.362 438.418 245.701C443.741 242.798 446.403 236.386 446.403 226.466V113.233H409.747C398.133 113.233 389.665 114.684 384.342 117.588C379.019 120.249 376.358 126.54 376.358 136.46ZM760.283 226.829L807.464 317.561H711.651L676.084 236.628H657.212V317.561H570.11V45.3653H707.296C769.72 45.3653 800.931 77.1819 800.931 140.815C800.931 184.366 787.382 213.038 760.283 226.829ZM677.173 115.047H657.212V169.486H677.173C687.819 169.486 695.44 168.398 700.038 166.22C704.877 164.042 707.296 159.082 707.296 151.34V133.194C707.296 125.451 704.877 120.491 700.038 118.314C695.44 116.136 687.819 115.047 677.173 115.047ZM1031.85 45.3653V115.047H968.706V317.561H881.603V115.047H818.454V45.3653H1031.85ZM1042.6 181.826C1042.6 156.905 1044.66 135.492 1048.77 117.588C1053.13 99.4414 1060.26 84.5614 1070.18 72.9477C1080.35 61.3341 1093.65 52.7448 1110.11 47.1799C1126.56 41.615 1146.88 38.8326 1171.08 38.8326C1195.51 38.8326 1215.84 41.615 1232.05 47.1799C1248.5 52.7448 1261.69 61.3341 1271.61 72.9477C1281.77 84.5614 1288.91 99.4414 1293.02 117.588C1297.38 135.492 1299.55 156.905 1299.55 181.826C1299.55 205.537 1297.62 226.345 1293.75 244.249C1289.88 261.912 1282.98 276.671 1273.06 288.526C1263.38 300.382 1250.2 309.334 1233.5 315.383C1217.05 321.19 1196.24 324.093 1171.08 324.093C1145.91 324.093 1124.99 321.19 1108.29 315.383C1091.84 309.334 1078.65 300.382 1068.73 288.526C1059.05 276.671 1052.28 261.912 1048.41 244.249C1044.54 226.345 1042.6 205.537 1042.6 181.826ZM1136.24 136.46V249.693H1172.53C1184.63 249.693 1193.22 248.362 1198.3 245.701C1203.62 242.798 1206.28 236.386 1206.28 226.466V113.233H1169.63C1158.01 113.233 1149.54 114.684 1144.22 117.588C1138.9 120.249 1136.24 126.54 1136.24 136.46ZM304.349 468.703V533.667H230.312V634.561H143.21V362.365H321.77L310.882 432.047H230.312V468.703H304.349ZM335 498.826C335 473.905 337.056 452.492 341.169 434.588C345.524 416.441 352.662 401.561 362.582 389.948C372.744 378.334 386.051 369.745 402.504 364.18C418.957 358.615 439.281 355.833 463.476 355.833C487.913 355.833 508.237 358.615 524.448 364.18C540.9 369.745 554.087 378.334 564.007 389.948C574.169 401.561 581.306 416.441 585.419 434.588C589.774 452.492 591.952 473.905 591.952 498.826C591.952 522.537 590.016 543.345 586.145 561.249C582.274 578.912 575.378 593.671 565.458 605.526C555.78 617.382 542.594 626.334 525.899 632.383C509.447 638.19 488.639 641.093 463.476 641.093C438.313 641.093 417.384 638.19 400.689 632.383C384.237 626.334 371.05 617.382 361.13 605.526C351.452 593.671 344.678 578.912 340.806 561.249C336.935 543.345 335 522.537 335 498.826ZM428.635 453.46V566.693H464.927C477.025 566.693 485.614 565.362 490.695 562.701C496.018 559.798 498.68 553.386 498.68 543.466V430.233H462.024C450.41 430.233 441.942 431.684 436.619 434.588C431.296 437.249 428.635 443.54 428.635 453.46ZM796.592 564.879V634.561H622.387V362.365H709.489V564.879H796.592ZM907.611 634.561H820.508V362.365H907.611V634.561ZM938.224 498.826C938.224 473.905 940.281 452.492 944.394 434.588C948.749 416.441 955.886 401.561 965.806 389.948C975.968 378.334 989.276 369.745 1005.73 364.18C1022.18 358.615 1042.51 355.833 1066.7 355.833C1091.14 355.833 1111.46 358.615 1127.67 364.18C1144.12 369.745 1157.31 378.334 1167.23 389.948C1177.39 401.561 1184.53 416.441 1188.64 434.588C1193 452.492 1195.18 473.905 1195.18 498.826C1195.18 522.537 1193.24 543.345 1189.37 561.249C1185.5 578.912 1178.6 593.671 1168.68 605.526C1159 617.382 1145.82 626.334 1129.12 632.383C1112.67 638.19 1091.86 641.093 1066.7 641.093C1041.54 641.093 1020.61 638.19 1003.91 632.383C987.461 626.334 974.275 617.382 964.355 605.526C954.677 593.671 947.902 578.912 944.031 561.249C940.16 543.345 938.224 522.537 938.224 498.826ZM1031.86 453.46V566.693H1068.15C1080.25 566.693 1088.84 565.362 1093.92 562.701C1099.24 559.798 1101.9 553.386 1101.9 543.466V430.233H1065.25C1053.63 430.233 1045.17 431.684 1039.84 434.588C1034.52 437.249 1031.86 443.54 1031.86 453.46Z" fill="#FAF611"/>
<path d="M125.935 251.871V213.038H87.1027V251.871H125.935ZM125.935 317.561V356.393H164.768V317.561H125.935ZM38.8328 317.561H0.000200272V356.393H38.8328V317.561ZM38.8328 45.3653V6.53271H0.000200272V45.3653H38.8328ZM265.299 187.27L227.425 178.695L227.425 178.695L265.299 187.27ZM250.419 221.022L218.98 198.229L218.927 198.301L218.875 198.375L250.419 221.022ZM223.563 243.523L206.196 208.791L206.042 208.867L205.889 208.946L223.563 243.523ZM125.935 115.047V76.2147H87.1027V115.047H125.935ZM125.935 182.189H87.1027V221.021H125.935V182.189ZM168.761 178.922L152.825 143.51L152.479 143.666L152.137 143.828L168.761 178.922ZM168.761 118.314L152.137 153.408L152.479 153.57L152.825 153.726L168.761 118.314ZM182.552 251.871V213.038H125.935V251.871V290.703H182.552V251.871ZM125.935 251.871H87.1027V317.561H125.935H164.768V251.871H125.935ZM125.935 317.561V278.728H38.8328V317.561V356.393H125.935V317.561ZM38.8328 317.561H77.6653V45.3653H38.8328H0.000200272V317.561H38.8328ZM38.8328 45.3653V84.1978H176.019V45.3653V6.53271H38.8328V45.3653ZM176.019 45.3653V84.1978C200.51 84.1978 211.94 90.6416 217.83 96.9649C224.203 103.808 230.822 117.713 230.822 145.896H269.654H308.487C308.487 107.059 299.499 70.698 274.662 44.0311C249.339 16.8441 213.952 6.53271 176.019 6.53271V45.3653ZM269.654 145.896H230.822C230.822 158.116 229.62 169.003 227.425 178.695L265.299 187.27L303.173 195.845C306.786 179.889 308.487 163.194 308.487 145.896H269.654ZM265.299 187.27L227.425 178.695C225.566 186.907 222.616 193.213 218.98 198.229L250.419 221.022L281.858 243.815C292.255 229.475 299.226 213.279 303.173 195.845L265.299 187.27ZM250.419 221.022L218.875 198.375C216.035 202.33 212.101 205.838 206.196 208.791L223.563 243.523L240.929 278.256C257.283 270.079 271.254 258.586 281.964 243.669L250.419 221.022ZM223.563 243.523L205.889 208.946C202.03 210.918 194.886 213.038 182.552 213.038V251.871V290.703C203.123 290.703 223.319 287.258 241.236 278.101L223.563 243.523ZM145.896 115.047V76.2147H125.935V115.047V153.88H145.896V115.047ZM125.935 115.047H87.1027V182.189H125.935H164.768V115.047H125.935ZM125.935 182.189V221.021H145.896V182.189V143.356H125.935V182.189ZM145.896 182.189V221.021C157.347 221.021 172.462 220.138 185.384 214.017L168.761 178.922L152.137 143.828C153.546 143.161 154.499 142.895 154.717 142.836C154.961 142.771 154.796 142.831 154.105 142.93C152.653 143.137 150.022 143.356 145.896 143.356V182.189ZM168.761 178.922L184.696 214.335C210.005 202.945 214.852 178.18 214.852 163.679H176.019H137.187C137.187 164.15 137.056 161.169 139.144 156.783C141.631 151.561 146.319 146.438 152.825 143.51L168.761 178.922ZM176.019 163.679H214.852V133.194H176.019H137.187V163.679H176.019ZM176.019 133.194H214.852C214.852 118.246 209.582 94.0999 184.696 82.9014L168.761 118.314L152.825 153.726C146.616 150.932 141.899 146.015 139.303 140.692C138.166 138.361 137.653 136.406 137.419 135.175C137.186 133.953 137.187 133.235 137.187 133.194H176.019ZM168.761 118.314L185.384 83.2192C172.462 77.0982 157.347 76.2147 145.896 76.2147V115.047V153.88C150.022 153.88 152.653 154.099 154.105 154.306C154.796 154.405 154.961 154.465 154.717 154.4C154.499 154.341 153.546 154.075 152.137 153.408L168.761 118.314ZM288.892 117.588L251.132 108.525L251.088 108.709L251.046 108.893L288.892 117.588ZM310.305 72.9477L281.08 47.3763L280.928 47.5505L280.778 47.7265L310.305 72.9477ZM350.227 47.1799L337.785 10.3946H337.785L350.227 47.1799ZM472.17 47.1799L459.562 83.9086L459.645 83.9371L459.728 83.9652L472.17 47.1799ZM511.729 72.9477L482.202 98.1689L482.353 98.3449L482.505 98.5191L511.729 72.9477ZM533.142 117.588L495.27 126.172L495.338 126.47L495.41 126.766L533.142 117.588ZM533.868 244.249L571.8 252.563L571.812 252.51L571.823 252.456L533.868 244.249ZM513.181 288.526L483.399 263.607L483.248 263.787L483.099 263.97L513.181 288.526ZM473.622 315.383L486.546 352.002L486.699 351.948L486.85 351.893L473.622 315.383ZM348.412 315.383L335.013 351.83L335.333 351.948L335.655 352.06L348.412 315.383ZM308.853 288.526L278.771 313.083L278.92 313.266L279.071 313.446L308.853 288.526ZM288.529 244.249L250.574 252.456L250.585 252.51L250.597 252.563L288.529 244.249ZM376.358 249.693H337.525V288.526H376.358V249.693ZM438.418 245.701L456.437 280.1L456.726 279.948L457.013 279.792L438.418 245.701ZM446.403 113.233H485.235V74.4001H446.403V113.233ZM384.342 117.588L401.708 152.321L402.329 152.011L402.937 151.679L384.342 117.588ZM282.723 181.826H321.555C321.555 158.869 323.466 140.53 326.739 126.282L288.892 117.588L251.046 108.893C246.092 130.455 243.89 154.94 243.89 181.826H282.723ZM288.892 117.588L326.653 126.65C329.89 113.161 334.681 104.2 339.832 98.1689L310.305 72.9477L280.778 47.7265C266.089 64.9232 256.605 85.7214 251.132 108.525L288.892 117.588ZM310.305 72.9477L339.529 98.5191C344.639 92.6795 351.87 87.6177 362.669 83.9652L350.227 47.1799L337.785 10.3946C315.678 17.8718 296.295 29.9886 281.08 47.3763L310.305 72.9477ZM350.227 47.1799L362.669 83.9653C373.881 80.173 389.701 77.6652 411.199 77.6652V38.8326V6.10352e-05C384.306 6.10352e-05 359.478 3.0571 337.785 10.3946L350.227 47.1799ZM411.199 38.8326V77.6652C433.017 77.6652 448.735 80.1919 459.562 83.9086L472.17 47.1799L484.779 10.4512C463.184 3.03821 438.254 6.10352e-05 411.199 6.10352e-05V38.8326ZM472.17 47.1799L459.728 83.9652C470.476 87.6004 477.427 92.5788 482.202 98.1689L511.729 72.9477L541.257 47.7266C526.192 30.0894 506.771 17.8892 484.612 10.3946L472.17 47.1799ZM511.729 72.9477L482.505 98.5191C487.626 104.372 492.292 113.032 495.27 126.172L533.142 117.588L571.014 109.003C565.766 85.8513 556.156 64.7506 540.954 47.3763L511.729 72.9477ZM533.142 117.588L495.41 126.766C498.829 140.824 500.842 158.991 500.842 181.826H539.675H578.507C578.507 154.819 576.165 130.16 570.875 108.41L533.142 117.588ZM539.675 181.826H500.842C500.842 203.538 499.06 221.488 495.913 236.043L533.868 244.249L571.823 252.456C576.419 231.202 578.507 207.536 578.507 181.826H539.675ZM533.868 244.249L495.936 235.935C493.177 248.525 488.674 257.302 483.399 263.607L513.181 288.526L542.963 313.446C557.528 296.039 566.817 275.299 571.8 252.563L533.868 244.249ZM513.181 288.526L483.099 263.97C478.526 269.572 471.566 274.825 460.394 278.873L473.622 315.383L486.85 351.893C509.067 343.843 528.48 331.192 543.263 313.083L513.181 288.526ZM473.622 315.383L460.698 278.764C449.793 282.613 433.735 285.261 411.199 285.261V324.093V362.926C438.988 362.926 464.546 359.767 486.546 352.002L473.622 315.383ZM411.199 324.093V285.261C388.693 285.261 372.426 282.621 361.17 278.706L348.412 315.383L335.655 352.06C357.788 359.758 383.378 362.926 411.199 362.926V324.093ZM348.412 315.383L361.812 278.936C350.865 274.911 343.639 269.586 338.635 263.607L308.853 288.526L279.071 313.446C293.908 331.178 313.054 343.757 335.013 351.83L348.412 315.383ZM308.853 288.526L338.935 263.97C333.754 257.622 329.263 248.718 326.461 235.935L288.529 244.249L250.597 252.563C255.538 275.105 264.597 295.72 278.771 313.083L308.853 288.526ZM288.529 244.249L326.485 236.043C323.338 221.488 321.555 203.538 321.555 181.826H282.723H243.89C243.89 207.536 245.978 231.202 250.574 252.456L288.529 244.249ZM376.358 136.46H337.525V249.693H376.358H415.19V136.46H376.358ZM376.358 249.693V288.526H412.65V249.693V210.861H376.358V249.693ZM412.65 249.693V288.526C425.532 288.526 442.401 287.452 456.437 280.1L438.418 245.701L420.4 211.302C421.873 210.53 422.87 210.229 423.064 210.172C423.283 210.108 423.048 210.192 422.22 210.32C420.487 210.589 417.417 210.861 412.65 210.861V249.693ZM438.418 245.701L457.013 279.792C481.407 266.486 485.235 241.034 485.235 226.466H446.403H407.57C407.57 228.337 407.264 226.904 408.541 223.827C410.089 220.098 413.596 215.007 419.823 211.61L438.418 245.701ZM446.403 226.466H485.235V113.233H446.403H407.57V226.466H446.403ZM446.403 113.233V74.4001H409.747V113.233V152.065H446.403V113.233ZM409.747 113.233V74.4001C396.569 74.4001 379.931 75.7601 365.747 83.4969L384.342 117.588L402.937 151.679C401.695 152.356 400.842 152.642 400.618 152.712C400.384 152.786 400.554 152.714 401.247 152.596C402.711 152.345 405.428 152.065 409.747 152.065V113.233ZM384.342 117.588L366.976 82.8549C341.215 95.735 337.525 122.283 337.525 136.46H376.358H415.19C415.19 134.541 415.511 136.139 414.117 139.433C412.409 143.469 408.527 148.911 401.708 152.321L384.342 117.588ZM760.283 226.829L742.67 192.22L707.758 209.988L725.831 244.744L760.283 226.829ZM807.464 317.561V356.393H871.426L841.917 299.645L807.464 317.561ZM711.651 317.561L676.1 333.184L686.3 356.393H711.651V317.561ZM676.084 236.628L711.635 221.004L701.436 197.795H676.084V236.628ZM657.212 236.628V197.795H618.38V236.628H657.212ZM657.212 317.561V356.393H696.045V317.561H657.212ZM570.11 317.561H531.277V356.393H570.11V317.561ZM570.11 45.3653V6.53271H531.277V45.3653H570.11ZM657.212 115.047V76.2147H618.38V115.047H657.212ZM657.212 169.486H618.38V208.319H657.212V169.486ZM700.038 166.22L684.102 130.808L683.756 130.963L683.414 131.126L700.038 166.22ZM700.038 118.314L683.414 153.408L683.756 153.57L684.102 153.726L700.038 118.314ZM760.283 226.829L725.831 244.744L773.011 335.476L807.464 317.561L841.917 299.645L794.736 208.913L760.283 226.829ZM807.464 317.561V278.728H711.651V317.561V356.393H807.464V317.561ZM711.651 317.561L747.202 301.937L711.635 221.004L676.084 236.628L640.533 252.251L676.1 333.184L711.651 317.561ZM676.084 236.628V197.795H657.212V236.628V275.46H676.084V236.628ZM657.212 236.628H618.38V317.561H657.212H696.045V236.628H657.212ZM657.212 317.561V278.728H570.11V317.561V356.393H657.212V317.561ZM570.11 317.561H608.942V45.3653H570.11H531.277V317.561H570.11ZM570.11 45.3653V84.1978H707.296V45.3653V6.53271H570.11V45.3653ZM707.296 45.3653V84.1978C732.331 84.1978 744.018 90.5258 749.801 96.4217C755.72 102.455 762.099 114.799 762.099 140.815H800.931H839.764C839.764 103.198 830.536 67.8167 805.243 42.0338C779.816 16.113 744.685 6.53271 707.296 6.53271V45.3653ZM800.931 140.815H762.099C762.099 176.92 751.404 187.775 742.67 192.22L760.283 226.829L777.897 261.437C823.36 238.3 839.764 191.813 839.764 140.815H800.931ZM677.173 115.047V76.2147H657.212V115.047V153.88H677.173V115.047ZM657.212 115.047H618.38V169.486H657.212H696.045V115.047H657.212ZM657.212 169.486V208.319H677.173V169.486V130.654H657.212V169.486ZM677.173 169.486V208.319C688.624 208.319 703.739 207.435 716.661 201.314L700.038 166.22L683.414 131.126C684.823 130.458 685.776 130.192 685.994 130.134C686.238 130.068 686.073 130.129 685.382 130.227C683.93 130.435 681.299 130.654 677.173 130.654V169.486ZM700.038 166.22L715.973 201.632C740.859 190.434 746.129 166.287 746.129 151.34H707.296H668.464C668.464 151.298 668.463 150.58 668.696 149.359C668.93 148.127 669.443 146.172 670.58 143.842C673.176 138.519 677.893 133.602 684.102 130.808L700.038 166.22ZM707.296 151.34H746.129V133.194H707.296H668.464V151.34H707.296ZM707.296 133.194H746.129C746.129 118.246 740.859 94.0999 715.973 82.9014L700.038 118.314L684.102 153.726C677.893 150.932 673.176 146.015 670.58 140.692C669.443 138.361 668.93 136.406 668.696 135.175C668.463 133.953 668.464 133.235 668.464 133.194H707.296ZM700.038 118.314L716.661 83.2192C703.739 77.0982 688.624 76.2147 677.173 76.2147V115.047V153.88C681.299 153.88 683.93 154.099 685.382 154.306C686.073 154.405 686.238 154.465 685.994 154.4C685.776 154.341 684.823 154.075 683.414 153.408L700.038 118.314ZM1031.85 45.3653H1070.69V6.53271H1031.85V45.3653ZM1031.85 115.047V153.88H1070.69V115.047H1031.85ZM968.706 115.047V76.2147H929.873V115.047H968.706ZM968.706 317.561V356.393H1007.54V317.561H968.706ZM881.603 317.561H842.771V356.393H881.603V317.561ZM881.603 115.047H920.436V76.2147H881.603V115.047ZM818.454 115.047H779.621V153.88H818.454V115.047ZM818.454 45.3653V6.53271H779.621V45.3653H818.454ZM1031.85 45.3653H993.022V115.047H1031.85H1070.69V45.3653H1031.85ZM1031.85 115.047V76.2147H968.706V115.047V153.88H1031.85V115.047ZM968.706 115.047H929.873V317.561H968.706H1007.54V115.047H968.706ZM968.706 317.561V278.728H881.603V317.561V356.393H968.706V317.561ZM881.603 317.561H920.436V115.047H881.603H842.771V317.561H881.603ZM881.603 115.047V76.2147H818.454V115.047V153.88H881.603V115.047ZM818.454 115.047H857.286V45.3653H818.454H779.621V115.047H818.454ZM818.454 45.3653V84.1978H1031.85V45.3653V6.53271H818.454V45.3653ZM1048.77 117.588L1011.01 108.525L1010.97 108.709L1010.92 108.893L1048.77 117.588ZM1070.18 72.9477L1040.96 47.3763L1040.81 47.5505L1040.66 47.7265L1070.18 72.9477ZM1110.11 47.1799L1097.66 10.3946H1097.66L1110.11 47.1799ZM1232.05 47.1799L1219.44 83.9086L1219.52 83.9371L1219.61 83.9652L1232.05 47.1799ZM1271.61 72.9477L1242.08 98.1689L1242.23 98.3449L1242.38 98.5191L1271.61 72.9477ZM1293.02 117.588L1255.15 126.172L1255.22 126.47L1255.29 126.766L1293.02 117.588ZM1293.75 244.249L1331.68 252.563L1331.69 252.51L1331.7 252.456L1293.75 244.249ZM1273.06 288.526L1243.28 263.607L1243.13 263.787L1242.98 263.97L1273.06 288.526ZM1233.5 315.383L1246.42 352.002L1246.58 351.948L1246.73 351.893L1233.5 315.383ZM1108.29 315.383L1094.89 351.83L1095.21 351.948L1095.53 352.06L1108.29 315.383ZM1068.73 288.526L1038.65 313.083L1038.8 313.266L1038.95 313.446L1068.73 288.526ZM1048.41 244.249L1010.45 252.456L1010.46 252.51L1010.48 252.563L1048.41 244.249ZM1136.24 249.693H1097.4V288.526H1136.24V249.693ZM1198.3 245.701L1216.32 280.1L1216.6 279.948L1216.89 279.792L1198.3 245.701ZM1206.28 113.233H1245.11V74.4001H1206.28V113.233ZM1144.22 117.588L1161.59 152.321L1162.21 152.011L1162.82 151.679L1144.22 117.588ZM1042.6 181.826H1081.43C1081.43 158.869 1083.34 140.53 1086.62 126.282L1048.77 117.588L1010.92 108.893C1005.97 130.455 1003.77 154.94 1003.77 181.826H1042.6ZM1048.77 117.588L1086.53 126.65C1089.77 113.161 1094.56 104.2 1099.71 98.1689L1070.18 72.9477L1040.66 47.7265C1025.97 64.9232 1016.48 85.7214 1011.01 108.525L1048.77 117.588ZM1070.18 72.9477L1099.41 98.5191C1104.52 92.6795 1111.75 87.6177 1122.55 83.9652L1110.11 47.1799L1097.66 10.3946C1075.56 17.8718 1056.17 29.9886 1040.96 47.3763L1070.18 72.9477ZM1110.11 47.1799L1122.55 83.9653C1133.76 80.173 1149.58 77.6652 1171.08 77.6652V38.8326V6.10352e-05C1144.18 6.10352e-05 1119.36 3.0571 1097.66 10.3946L1110.11 47.1799ZM1171.08 38.8326V77.6652C1192.9 77.6652 1208.61 80.1919 1219.44 83.9086L1232.05 47.1799L1244.66 10.4512C1223.06 3.03821 1198.13 6.10352e-05 1171.08 6.10352e-05V38.8326ZM1232.05 47.1799L1219.61 83.9652C1230.35 87.6004 1237.31 92.5788 1242.08 98.1689L1271.61 72.9477L1301.14 47.7266C1286.07 30.0894 1266.65 17.8892 1244.49 10.3946L1232.05 47.1799ZM1271.61 72.9477L1242.38 98.5191C1247.5 104.372 1252.17 113.032 1255.15 126.172L1293.02 117.588L1330.89 109.003C1325.64 85.8513 1316.03 64.7506 1300.83 47.3763L1271.61 72.9477ZM1293.02 117.588L1255.29 126.766C1258.71 140.824 1260.72 158.991 1260.72 181.826H1299.55H1338.39C1338.39 154.819 1336.04 130.16 1330.75 108.41L1293.02 117.588ZM1299.55 181.826H1260.72C1260.72 203.538 1258.94 221.488 1255.79 236.043L1293.75 244.249L1331.7 252.456C1336.3 231.202 1338.39 207.536 1338.39 181.826H1299.55ZM1293.75 244.249L1255.81 235.935C1253.06 248.525 1248.55 257.302 1243.28 263.607L1273.06 288.526L1302.84 313.446C1317.41 296.039 1326.7 275.299 1331.68 252.563L1293.75 244.249ZM1273.06 288.526L1242.98 263.97C1238.4 269.572 1231.44 274.825 1220.27 278.873L1233.5 315.383L1246.73 351.893C1268.95 343.843 1288.36 331.192 1303.14 313.083L1273.06 288.526ZM1233.5 315.383L1220.58 278.764C1209.67 282.613 1193.61 285.261 1171.08 285.261V324.093V362.926C1198.87 362.926 1224.42 359.767 1246.42 352.002L1233.5 315.383ZM1171.08 324.093V285.261C1148.57 285.261 1132.3 282.621 1121.05 278.706L1108.29 315.383L1095.53 352.06C1117.67 359.758 1143.26 362.926 1171.08 362.926V324.093ZM1108.29 315.383L1121.69 278.936C1110.74 274.911 1103.52 269.586 1098.51 263.607L1068.73 288.526L1038.95 313.446C1053.79 331.178 1072.93 343.757 1094.89 351.83L1108.29 315.383ZM1068.73 288.526L1098.81 263.97C1093.63 257.622 1089.14 248.718 1086.34 235.935L1048.41 244.249L1010.48 252.563C1015.42 275.105 1024.48 295.72 1038.65 313.083L1068.73 288.526ZM1048.41 244.249L1086.36 236.043C1083.22 221.488 1081.43 203.538 1081.43 181.826H1042.6H1003.77C1003.77 207.536 1005.86 231.202 1010.45 252.456L1048.41 244.249ZM1136.24 136.46H1097.4V249.693H1136.24H1175.07V136.46H1136.24ZM1136.24 249.693V288.526H1172.53V249.693V210.861H1136.24V249.693ZM1172.53 249.693V288.526C1185.41 288.526 1202.28 287.452 1216.32 280.1L1198.3 245.701L1180.28 211.302C1181.75 210.53 1182.75 210.229 1182.94 210.172C1183.16 210.108 1182.93 210.192 1182.1 210.32C1180.37 210.589 1177.3 210.861 1172.53 210.861V249.693ZM1198.3 245.701L1216.89 279.792C1241.29 266.486 1245.11 241.034 1245.11 226.466H1206.28H1167.45C1167.45 228.337 1167.14 226.904 1168.42 223.827C1169.97 220.098 1173.47 215.007 1179.7 211.61L1198.3 245.701ZM1206.28 226.466H1245.11V113.233H1206.28H1167.45V226.466H1206.28ZM1206.28 113.233V74.4001H1169.63V113.233V152.065H1206.28V113.233ZM1169.63 113.233V74.4001C1156.45 74.4001 1139.81 75.7601 1125.63 83.4969L1144.22 117.588L1162.82 151.679C1161.57 152.356 1160.72 152.642 1160.5 152.712C1160.26 152.786 1160.43 152.714 1161.13 152.596C1162.59 152.345 1165.31 152.065 1169.63 152.065V113.233ZM1144.22 117.588L1126.85 82.8549C1101.09 95.735 1097.4 122.283 1097.4 136.46H1136.24H1175.07C1175.07 134.541 1175.39 136.139 1174 139.433C1172.29 143.469 1168.41 148.911 1161.59 152.321L1144.22 117.588ZM304.349 468.703H343.182V429.87H304.349V468.703ZM304.349 533.667V572.499H343.182V533.667H304.349ZM230.312 533.667V494.834H191.48V533.667H230.312ZM230.312 634.561V673.393H269.145V634.561H230.312ZM143.21 634.561H104.377V673.393H143.21V634.561ZM143.21 362.365V323.533H104.377V362.365H143.21ZM321.77 362.365L360.137 368.36L367.141 323.533H321.77V362.365ZM310.882 432.047V470.88H344.118L349.249 438.042L310.882 432.047ZM230.312 432.047V393.215H191.48V432.047H230.312ZM230.312 468.703H191.48V507.535H230.312V468.703ZM304.349 468.703H265.517V533.667H304.349H343.182V468.703H304.349ZM304.349 533.667V494.834H230.312V533.667V572.499H304.349V533.667ZM230.312 533.667H191.48V634.561H230.312H269.145V533.667H230.312ZM230.312 634.561V595.728H143.21V634.561V673.393H230.312V634.561ZM143.21 634.561H182.042V362.365H143.21H104.377V634.561H143.21ZM143.21 362.365V401.198H321.77V362.365V323.533H143.21V362.365ZM321.77 362.365L283.403 356.37L272.515 426.052L310.882 432.047L349.249 438.042L360.137 368.36L321.77 362.365ZM310.882 432.047V393.215H230.312V432.047V470.88H310.882V432.047ZM230.312 432.047H191.48V468.703H230.312H269.145V432.047H230.312ZM230.312 468.703V507.535H304.349V468.703V429.87H230.312V468.703ZM341.169 434.588L303.409 425.525L303.365 425.709L303.323 425.893L341.169 434.588ZM362.582 389.948L333.358 364.376L333.205 364.551L333.055 364.727L362.582 389.948ZM402.504 364.18L390.062 327.395H390.062L402.504 364.18ZM524.448 364.18L511.839 400.909L511.922 400.937L512.005 400.965L524.448 364.18ZM564.007 389.948L534.479 415.169L534.63 415.345L534.782 415.519L564.007 389.948ZM585.419 434.588L547.547 443.172L547.615 443.47L547.687 443.766L585.419 434.588ZM586.145 561.249L624.077 569.563L624.089 569.51L624.101 569.456L586.145 561.249ZM565.458 605.526L535.676 580.607L535.525 580.787L535.376 580.97L565.458 605.526ZM525.899 632.383L538.823 669.002L538.976 668.948L539.128 668.893L525.899 632.383ZM400.689 632.383L387.29 668.83L387.61 668.948L387.932 669.06L400.689 632.383ZM361.13 605.526L331.048 630.083L331.197 630.266L331.348 630.446L361.13 605.526ZM340.806 561.249L302.851 569.456L302.863 569.51L302.874 569.563L340.806 561.249ZM428.635 566.693H389.802V605.526H428.635V566.693ZM490.695 562.701L508.714 597.1L509.003 596.948L509.29 596.792L490.695 562.701ZM498.68 430.233H537.512V391.4H498.68V430.233ZM436.619 434.588L453.986 469.321L454.606 469.011L455.214 468.679L436.619 434.588ZM335 498.826H373.832C373.832 475.869 375.743 457.53 379.016 443.282L341.169 434.588L303.323 425.893C298.369 447.455 296.167 471.94 296.167 498.826H335ZM341.169 434.588L378.93 443.65C382.167 430.161 386.958 421.2 392.109 415.169L362.582 389.948L333.055 364.727C318.366 381.923 308.882 402.721 303.409 425.525L341.169 434.588ZM362.582 389.948L391.807 415.519C396.916 409.68 404.147 404.618 414.946 400.965L402.504 364.18L390.062 327.395C367.955 334.872 348.572 346.989 333.358 364.376L362.582 389.948ZM402.504 364.18L414.946 400.965C426.158 397.173 441.978 394.665 463.476 394.665V355.833V317C436.583 317 411.755 320.057 390.062 327.395L402.504 364.18ZM463.476 355.833V394.665C485.294 394.665 501.012 397.192 511.839 400.909L524.448 364.18L537.056 327.451C515.461 320.038 490.531 317 463.476 317V355.833ZM524.448 364.18L512.005 400.965C522.753 404.6 529.704 409.579 534.479 415.169L564.007 389.948L593.534 364.727C578.469 347.089 559.048 334.889 536.89 327.395L524.448 364.18ZM564.007 389.948L534.782 415.519C539.903 421.372 544.569 430.032 547.547 443.172L585.419 434.588L623.291 426.003C618.043 402.851 608.434 381.751 593.231 364.376L564.007 389.948ZM585.419 434.588L547.687 443.766C551.106 457.824 553.119 475.991 553.119 498.826H591.952H630.785C630.785 471.819 628.442 447.16 623.152 425.41L585.419 434.588ZM591.952 498.826H553.119C553.119 520.538 551.337 538.488 548.19 553.043L586.145 561.249L624.101 569.456C628.696 548.202 630.785 524.536 630.785 498.826H591.952ZM586.145 561.249L548.213 552.935C545.454 565.525 540.951 574.302 535.676 580.607L565.458 605.526L595.24 630.446C609.805 613.039 619.094 592.299 624.077 569.563L586.145 561.249ZM565.458 605.526L535.376 580.97C530.803 586.572 523.843 591.825 512.671 595.873L525.899 632.383L539.128 668.893C561.344 660.843 580.757 648.192 595.54 630.083L565.458 605.526ZM525.899 632.383L512.975 595.764C502.07 599.613 486.012 602.261 463.476 602.261V641.093V679.926C491.265 679.926 516.823 676.767 538.823 669.002L525.899 632.383ZM463.476 641.093V602.261C440.971 602.261 424.703 599.621 413.447 595.706L400.689 632.383L387.932 669.06C410.065 676.758 435.655 679.926 463.476 679.926V641.093ZM400.689 632.383L414.089 595.936C403.142 591.911 395.916 586.586 390.912 580.607L361.13 605.526L331.348 630.446C346.185 648.178 365.331 660.757 387.29 668.83L400.689 632.383ZM361.13 605.526L391.212 580.97C386.031 574.622 381.54 565.718 378.739 552.935L340.806 561.249L302.874 569.563C307.815 592.105 316.874 612.72 331.048 630.083L361.13 605.526ZM340.806 561.249L378.762 553.043C375.615 538.488 373.832 520.538 373.832 498.826H335H296.167C296.167 524.536 298.255 548.202 302.851 569.456L340.806 561.249ZM428.635 453.46H389.802V566.693H428.635H467.467V453.46H428.635ZM428.635 566.693V605.526H464.927V566.693V527.861H428.635V566.693ZM464.927 566.693V605.526C477.809 605.526 494.679 604.452 508.714 597.1L490.695 562.701L472.677 528.302C474.15 527.53 475.147 527.229 475.341 527.172C475.56 527.108 475.325 527.192 474.497 527.32C472.764 527.589 469.694 527.861 464.927 527.861V566.693ZM490.695 562.701L509.29 596.792C533.684 583.486 537.512 558.034 537.512 543.466H498.68H459.847C459.847 545.337 459.541 543.904 460.818 540.827C462.366 537.098 465.873 532.007 472.1 528.61L490.695 562.701ZM498.68 543.466H537.512V430.233H498.68H459.847V543.466H498.68ZM498.68 430.233V391.4H462.024V430.233V469.065H498.68V430.233ZM462.024 430.233V391.4C448.846 391.4 432.208 392.76 418.024 400.497L436.619 434.588L455.214 468.679C453.973 469.356 453.119 469.642 452.895 469.712C452.661 469.786 452.831 469.714 453.524 469.596C454.988 469.345 457.706 469.065 462.024 469.065V430.233ZM436.619 434.588L419.253 399.855C393.492 412.735 389.802 439.283 389.802 453.46H428.635H467.467C467.467 451.541 467.788 453.139 466.394 456.433C464.687 460.469 460.804 465.911 453.986 469.321L436.619 434.588ZM796.592 564.879H835.424V526.046H796.592V564.879ZM796.592 634.561V673.393H835.424V634.561H796.592ZM622.387 634.561H583.554V673.393H622.387V634.561ZM622.387 362.365V323.533H583.554V362.365H622.387ZM709.489 362.365H748.322V323.533H709.489V362.365ZM709.489 564.879H670.657V603.711H709.489V564.879ZM796.592 564.879H757.759V634.561H796.592H835.424V564.879H796.592ZM796.592 634.561V595.728H622.387V634.561V673.393H796.592V634.561ZM622.387 634.561H661.219V362.365H622.387H583.554V634.561H622.387ZM622.387 362.365V401.198H709.489V362.365V323.533H622.387V362.365ZM709.489 362.365H670.657V564.879H709.489H748.322V362.365H709.489ZM709.489 564.879V603.711H796.592V564.879V526.046H709.489V564.879ZM907.611 634.561V673.393H946.443V634.561H907.611ZM820.508 634.561H781.675V673.393H820.508V634.561ZM820.508 362.365V323.533H781.675V362.365H820.508ZM907.611 362.365H946.443V323.533H907.611V362.365ZM907.611 634.561V595.728H820.508V634.561V673.393H907.611V634.561ZM820.508 634.561H859.341V362.365H820.508H781.675V634.561H820.508ZM820.508 362.365V401.198H907.611V362.365V323.533H820.508V362.365ZM907.611 362.365H868.778V634.561H907.611H946.443V362.365H907.611ZM944.394 434.588L906.633 425.525L906.589 425.709L906.547 425.893L944.394 434.588ZM965.806 389.948L936.582 364.376L936.43 364.551L936.279 364.727L965.806 389.948ZM1005.73 364.18L993.286 327.395V327.395L1005.73 364.18ZM1127.67 364.18L1115.06 400.909L1115.15 400.937L1115.23 400.965L1127.67 364.18ZM1167.23 389.948L1137.7 415.169L1137.85 415.345L1138.01 415.519L1167.23 389.948ZM1188.64 434.588L1150.77 443.172L1150.84 443.47L1150.91 443.766L1188.64 434.588ZM1189.37 561.249L1227.3 569.563L1227.31 569.51L1227.32 569.456L1189.37 561.249ZM1168.68 605.526L1138.9 580.607L1138.75 580.787L1138.6 580.97L1168.68 605.526ZM1129.12 632.383L1142.05 669.002L1142.2 668.948L1142.35 668.893L1129.12 632.383ZM1003.91 632.383L990.514 668.83L990.834 668.948L991.156 669.06L1003.91 632.383ZM964.355 605.526L934.273 630.083L934.422 630.266L934.573 630.446L964.355 605.526ZM944.031 561.249L906.075 569.456L906.087 569.51L906.099 569.563L944.031 561.249ZM1031.86 566.693H993.027V605.526H1031.86V566.693ZM1093.92 562.701L1111.94 597.1L1112.23 596.948L1112.51 596.792L1093.92 562.701ZM1101.9 430.233H1140.74V391.4H1101.9V430.233ZM1039.84 434.588L1057.21 469.321L1057.83 469.011L1058.44 468.679L1039.84 434.588ZM938.224 498.826H977.057C977.057 475.869 978.967 457.53 982.24 443.282L944.394 434.588L906.547 425.893C901.594 447.455 899.391 471.94 899.391 498.826H938.224ZM944.394 434.588L982.154 443.65C985.391 430.161 990.182 421.2 995.334 415.169L965.806 389.948L936.279 364.727C921.59 381.923 912.106 402.721 906.633 425.525L944.394 434.588ZM965.806 389.948L995.031 415.519C1000.14 409.68 1007.37 404.618 1018.17 400.965L1005.73 364.18L993.286 327.395C971.18 334.872 951.796 346.989 936.582 364.376L965.806 389.948ZM1005.73 364.18L1018.17 400.965C1029.38 397.173 1045.2 394.665 1066.7 394.665V355.833V317C1039.81 317 1014.98 320.057 993.286 327.395L1005.73 364.18ZM1066.7 355.833V394.665C1088.52 394.665 1104.24 397.192 1115.06 400.909L1127.67 364.18L1140.28 327.451C1118.69 320.038 1093.76 317 1066.7 317V355.833ZM1127.67 364.18L1115.23 400.965C1125.98 404.6 1132.93 409.579 1137.7 415.169L1167.23 389.948L1196.76 364.727C1181.69 347.089 1162.27 334.889 1140.11 327.395L1127.67 364.18ZM1167.23 389.948L1138.01 415.519C1143.13 421.372 1147.79 430.032 1150.77 443.172L1188.64 434.588L1226.52 426.003C1221.27 402.851 1211.66 381.751 1196.46 364.376L1167.23 389.948ZM1188.64 434.588L1150.91 443.766C1154.33 457.824 1156.34 475.991 1156.34 498.826H1195.18H1234.01C1234.01 471.819 1231.67 447.16 1226.38 425.41L1188.64 434.588ZM1195.18 498.826H1156.34C1156.34 520.538 1154.56 538.488 1151.41 553.043L1189.37 561.249L1227.32 569.456C1231.92 548.202 1234.01 524.536 1234.01 498.826H1195.18ZM1189.37 561.249L1151.44 552.935C1148.68 565.525 1144.18 574.302 1138.9 580.607L1168.68 605.526L1198.46 630.446C1213.03 613.039 1222.32 592.299 1227.3 569.563L1189.37 561.249ZM1168.68 605.526L1138.6 580.97C1134.03 586.572 1127.07 591.825 1115.9 595.873L1129.12 632.383L1142.35 668.893C1164.57 660.843 1183.98 648.192 1198.76 630.083L1168.68 605.526ZM1129.12 632.383L1116.2 595.764C1105.29 599.613 1089.24 602.261 1066.7 602.261V641.093V679.926C1094.49 679.926 1120.05 676.767 1142.05 669.002L1129.12 632.383ZM1066.7 641.093V602.261C1044.19 602.261 1027.93 599.621 1016.67 595.706L1003.91 632.383L991.156 669.06C1013.29 676.758 1038.88 679.926 1066.7 679.926V641.093ZM1003.91 632.383L1017.31 595.936C1006.37 591.911 999.14 586.586 994.137 580.607L964.355 605.526L934.573 630.446C949.409 648.178 968.556 660.757 990.514 668.83L1003.91 632.383ZM964.355 605.526L994.437 580.97C989.255 574.622 984.765 565.718 981.963 552.935L944.031 561.249L906.099 569.563C911.039 592.105 920.098 612.72 934.273 630.083L964.355 605.526ZM944.031 561.249L981.986 553.043C978.839 538.488 977.057 520.538 977.057 498.826H938.224H899.391C899.391 524.536 901.48 548.202 906.075 569.456L944.031 561.249ZM1031.86 453.46H993.027V566.693H1031.86H1070.69V453.46H1031.86ZM1031.86 566.693V605.526H1068.15V566.693V527.861H1031.86V566.693ZM1068.15 566.693V605.526C1081.03 605.526 1097.9 604.452 1111.94 597.1L1093.92 562.701L1075.9 528.302C1077.37 527.53 1078.37 527.229 1078.57 527.172C1078.78 527.108 1078.55 527.192 1077.72 527.32C1075.99 527.589 1072.92 527.861 1068.15 527.861V566.693ZM1093.92 562.701L1112.51 596.792C1136.91 583.486 1140.74 558.034 1140.74 543.466H1101.9H1063.07C1063.07 545.337 1062.77 543.904 1064.04 540.827C1065.59 537.098 1069.1 532.007 1075.32 528.61L1093.92 562.701ZM1101.9 543.466H1140.74V430.233H1101.9H1063.07V543.466H1101.9ZM1101.9 430.233V391.4H1065.25V430.233V469.065H1101.9V430.233ZM1065.25 430.233V391.4C1052.07 391.4 1035.43 392.76 1021.25 400.497L1039.84 434.588L1058.44 468.679C1057.2 469.356 1056.34 469.642 1056.12 469.712C1055.89 469.786 1056.06 469.714 1056.75 469.596C1058.21 469.345 1060.93 469.065 1065.25 469.065V430.233ZM1039.84 434.588L1022.48 399.855C996.717 412.735 993.027 439.283 993.027 453.46H1031.86H1070.69C1070.69 451.541 1071.01 453.139 1069.62 456.433C1067.91 460.469 1064.03 465.911 1057.21 469.321L1039.84 434.588Z" fill="#FFB902" mask="url(#path-1-outside-1_116_3)"/>
</svg>
