<svg width="1322" height="779" viewBox="0 0 1322 779" fill="none" xmlns="http://www.w3.org/2000/svg">
<path d="M139.374 172.275C138.516 204.221 137.658 236.167 137.884 295.432C138.11 354.696 139.446 440.31 140.701 482.107C141.957 523.904 143.09 519.289 144.258 514.534" stroke="#2E8E37" stroke-width="29.726" stroke-linecap="round"/>
<path d="M67.9023 264.871C69.1526 248.401 71.2658 236.782 74.8855 230.627C82.8942 217.011 113.04 204.105 141.508 189.111C179.119 169.301 234.878 171.038 252.092 175.945C273.945 182.175 278.844 205.057 284.404 217.047C290.515 230.227 288.533 249.085 277.208 285.397C270.708 296.204 260.378 306.948 241.021 322.666C221.663 338.385 193.59 358.751 164.176 381.732" stroke="#2E8E37" stroke-width="29.726" stroke-linecap="round"/>
<path d="M297.889 380.69C296.435 392.301 298.542 420.887 304.101 468.36C310.865 526.121 326.378 560.655 329.378 562.843C350.935 578.565 323.203 504.945 321.457 490.323C319.976 477.922 319.517 462.35 318.212 447.571C317.092 437.731 364.603 423.433 435.985 407.426C459.331 401.987 456.532 401.998 451.65 401.519" stroke="#2E8E37" stroke-width="29.726" stroke-linecap="round"/>
<path d="M676.551 365.751C682.51 401.766 687.901 425.609 698.934 486.712C704.259 516.202 713.265 562.417 718.441 588.124C723.618 613.832 724.786 617.614 723.005 620.724C718.777 628.109 707.604 630.382 698.661 632.422C677.822 628.043 666.488 622.441 659.251 617.496C655.645 614.841 652.175 611.892 648.6 608.853" stroke="#2E8E37" stroke-width="29.726" stroke-linecap="round"/>
<path d="M747.297 414.998C772.324 409.962 839.114 385.486 854.119 368.211C856.208 365.807 852.072 362.402 849.397 360.315C846.722 358.228 843.587 356.758 840.243 355.926C833.574 354.267 822.163 360.583 809.409 370.848C790.552 386.025 783.454 423.034 782.429 447.207C782.063 455.855 790.04 462.189 795.62 468.147C800.579 473.441 809.53 474.774 818.251 476.567C825.703 478.099 832.005 475.381 837.215 471.375C842.263 468.029 846.433 462.699 850.541 454.556C853.018 450.208 856.292 445.42 859.664 440.487" stroke="#2E8E37" stroke-width="29.726" stroke-linecap="round"/>
<path d="M944.37 393.185C939.261 396.823 931.647 410.48 924.333 425.938C914.584 446.542 915.222 465.781 918.636 473.314C927.947 493.861 949.222 496.737 963.374 500.955C967.701 502.245 973.469 501.339 977.007 500.089C980.544 498.84 981.852 496.365 983.497 491.134C985.142 485.903 987.086 477.992 989.088 469.841" stroke="#2E8E37" stroke-width="29.726" stroke-linecap="round"/>
<path d="M1026.07 298.719C1028.58 305.649 1035.41 357.786 1040.83 393.721C1042.34 403.706 1044.15 411.877 1046.25 417.676C1048.46 423.817 1059.95 427.789 1072.59 429.496C1077.28 430.13 1078.62 426.785 1079.2 423.04C1079.78 419.296 1079.6 414.357 1077.77 410.338C1075.94 406.319 1072.47 403.369 1068.9 400.33" stroke="#2E8E37" stroke-width="29.726" stroke-linecap="round"/>
<path d="M1016.82 353.641C1022.07 349.338 1027.4 344.971 1032.69 340.636C1035.35 338.452 1037.98 336.301 1041.39 333.95C1044.79 331.598 1048.9 329.112 1053.62 324.552" stroke="#2E8E37" stroke-width="29.726" stroke-linecap="round"/>
<path d="M489.508 543.198C490.617 544.407 492.35 546.019 495.658 547.896C500.434 550.606 515.832 550.169 534.601 549.816C543.558 549.647 547.135 548.377 550.131 546.753C558.062 542.456 561.714 528.557 563.368 522.33C565.561 514.076 559.965 502.106 555.178 496.526C551.414 492.138 544.874 490.321 529.497 487.126C517.36 484.603 504.552 483.24 493.178 484.104C485.1 484.718 481.568 489.887 477.389 491.944C470.157 495.505 464.407 507.674 461.34 511.999C455.109 520.784 453.67 525.379 451.925 529.099C451.482 530.044 451.293 531.183 451.567 531.971C453.415 537.266 465.215 536.051 469.348 536.591C474.975 537.326 480.974 534.486 487.021 533.488C497.409 531.773 511.045 528.629 517.283 527.319C518.798 526.978 520.065 526.587 521.241 526.162C522.417 525.738 523.463 525.292 526.209 523.823" stroke="#2E8E37" stroke-width="11.3678" stroke-linecap="round"/>
<path d="M476.63 459.828C476.522 460.27 476.415 461.657 476.482 464.736C476.886 469.303 477.631 474.014 478.618 477.682C479.156 479.365 479.768 480.686 481.409 483.716" stroke="#2E8E37" stroke-width="11.3678" stroke-linecap="round"/>
<path d="M478.758 448.284C479.459 443.523 481.3 432.158 485.12 426.68C487.739 422.922 495.854 417.989 504.644 414.555C511.704 411.797 520.588 411.729 529.26 411.606C539.423 411.462 550.591 411.988 556.32 412.69C568.004 414.12 575.155 415.894 580.259 416.442C584.031 416.846 591.701 417.83 598.568 418.928C607.829 420.408 614.748 430.107 618.312 434.408C621.857 438.685 622.451 444.052 624.884 453.391C627.528 463.54 628.814 472.119 629.835 477.572C630.935 483.454 632.008 493.672 632.398 503.268C632.847 514.345 631.404 519.36 630.262 525.468C629.284 530.695 628.575 536.651 628.791 541.552C629.08 548.117 627.47 552.705 627.878 557.302C627.94 558.506 627.89 559.665 627.866 560.73C627.842 561.796 627.846 562.734 627.685 564.37" stroke="#2E8E37" stroke-width="11.3678" stroke-linecap="round"/>
<path d="M511.667 565.678C512.444 567.281 520.541 570.697 528.026 573.125C537.666 576.252 546.801 575.502 557.062 577.189C571.784 579.609 587.788 578.956 599.314 579.062C612.843 575.636 616.557 573.951 620.059 572.685C621.522 572.09 622.347 571.59 624.361 569.232" stroke="#2E8E37" stroke-width="11.3678" stroke-linecap="round"/>
<path d="M508.233 461.204L509.408 462.202" stroke="#2E8E37" stroke-width="11.3678" stroke-linecap="round"/>
<path d="M548.538 464.718L546.706 466.398" stroke="#2E8E37" stroke-width="11.3678" stroke-linecap="round"/>
<path d="M1248.78 300.524C1240.85 295.012 1216.25 279.804 1199.63 276.33C1184.36 273.138 1177.29 301.944 1162.35 332.512C1157.9 341.613 1160.75 353.515 1166.76 367.864C1180.77 401.32 1232.78 408.93 1246.22 417.073C1252.37 420.804 1256.12 427.075 1259.98 431.987C1261.92 434.453 1261.39 438.368 1260.25 442.699C1253.92 466.572 1218.05 481.545 1200.38 486.991C1196.61 487.437 1193.07 487.513 1189.28 487.062C1185.5 486.611 1181.58 485.632 1176.51 486.793" stroke="#2E8E37" stroke-width="42.2756" stroke-linecap="round"/>
<path d="M128.374 163.275C127.516 195.221 126.658 227.167 126.884 286.432C127.11 345.696 128.446 431.31 129.701 473.107C130.957 514.904 132.09 510.289 133.258 505.534" stroke="#F7DF19" stroke-width="29.726" stroke-linecap="round"/>
<path d="M56.9023 255.871C58.1526 239.401 60.2658 227.782 63.8855 221.627C71.8942 208.011 102.04 195.105 130.508 180.111C168.119 160.301 223.878 162.038 241.092 166.945C262.945 173.175 267.844 196.057 273.404 208.047C279.515 221.227 277.533 240.085 266.208 276.397C259.708 287.204 249.378 297.948 230.021 313.666C210.663 329.385 182.59 349.751 153.176 372.732" stroke="#F7DF19" stroke-width="29.726" stroke-linecap="round"/>
<path d="M286.889 371.69C285.435 383.301 287.542 411.887 293.101 459.36C299.865 517.121 315.378 551.655 318.378 553.843C339.935 569.565 312.203 495.945 310.457 481.323C308.976 468.922 308.517 453.35 307.212 438.571C306.092 428.731 353.603 414.433 424.985 398.426C448.331 392.987 445.532 392.998 440.65 392.519" stroke="#F7DF19" stroke-width="29.726" stroke-linecap="round"/>
<path d="M665.551 356.751C671.51 392.766 676.901 416.609 687.934 477.712C693.259 507.202 702.265 553.417 707.441 579.124C712.618 604.832 713.786 608.614 712.005 611.724C707.777 619.109 696.604 621.382 687.661 623.422C666.822 619.043 655.488 613.441 648.251 608.496C644.645 605.841 641.175 602.892 637.6 599.853" stroke="#F7DF19" stroke-width="29.726" stroke-linecap="round"/>
<path d="M736.297 405.998C761.324 400.962 828.114 376.486 843.119 359.211C845.208 356.807 841.072 353.402 838.397 351.315C835.722 349.228 832.587 347.758 829.243 346.926C822.574 345.267 811.163 351.583 798.409 361.848C779.552 377.025 772.454 414.034 771.429 438.207C771.063 446.855 779.04 453.189 784.62 459.147C789.579 464.441 798.53 465.774 807.251 467.567C814.703 469.099 821.005 466.381 826.215 462.375C831.263 459.029 835.433 453.699 839.541 445.556C842.018 441.208 845.292 436.42 848.664 431.487" stroke="#F7DF19" stroke-width="29.726" stroke-linecap="round"/>
<path d="M933.37 384.185C928.261 387.823 920.647 401.48 913.333 416.938C903.584 437.542 904.222 456.781 907.636 464.314C916.947 484.861 938.222 487.737 952.374 491.955C956.701 493.245 962.469 492.339 966.007 491.089C969.544 489.84 970.852 487.365 972.497 482.134C974.142 476.903 976.086 468.992 978.088 460.841" stroke="#F7DF19" stroke-width="29.726" stroke-linecap="round"/>
<path d="M1015.07 289.719C1017.58 296.649 1024.41 348.786 1029.83 384.721C1031.34 394.706 1033.15 402.877 1035.25 408.676C1037.46 414.817 1048.95 418.789 1061.59 420.496C1066.28 421.13 1067.62 417.785 1068.2 414.04C1068.78 410.296 1068.6 405.357 1066.77 401.338C1064.94 397.319 1061.47 394.369 1057.9 391.33" stroke="#F7DF19" stroke-width="29.726" stroke-linecap="round"/>
<path d="M1005.82 344.641C1011.07 340.338 1016.4 335.971 1021.69 331.636C1024.35 329.452 1026.98 327.301 1030.39 324.95C1033.79 322.598 1037.9 320.112 1042.62 315.552" stroke="#F7DF19" stroke-width="29.726" stroke-linecap="round"/>
<path d="M478.508 534.198C479.617 535.408 481.35 537.019 484.658 538.896C489.434 541.607 504.832 541.17 523.601 540.816C532.558 540.647 536.135 539.377 539.131 537.753C547.062 533.456 550.714 519.557 552.368 513.331C554.561 505.076 548.965 493.107 544.178 487.526C540.414 483.138 533.874 481.322 518.497 478.126C506.36 475.603 493.552 474.24 482.178 475.105C474.1 475.719 470.568 480.887 466.389 482.944C459.157 486.505 453.407 498.674 450.34 502.999C444.109 511.784 442.67 516.379 440.925 520.099C440.482 521.044 440.293 522.183 440.567 522.971C442.415 528.266 454.215 527.052 458.348 527.591C463.975 528.326 469.974 525.486 476.021 524.488C486.409 522.773 500.045 519.63 506.283 518.319C507.798 517.978 509.065 517.587 510.241 517.162C511.417 516.738 512.463 516.292 515.209 514.823" stroke="#F7DF19" stroke-width="11.3678" stroke-linecap="round"/>
<path d="M465.63 450.829C465.522 451.27 465.415 452.657 465.482 455.736C465.886 460.303 466.631 465.015 467.618 468.682C468.156 470.365 468.768 471.687 470.409 474.716" stroke="#F7DF19" stroke-width="11.3678" stroke-linecap="round"/>
<path d="M467.758 439.284C468.459 434.524 470.3 423.158 474.12 417.68C476.739 413.923 484.854 408.989 493.644 405.555C500.704 402.797 509.588 402.729 518.26 402.606C528.423 402.462 539.591 402.989 545.32 403.69C557.004 405.12 564.155 406.894 569.259 407.442C573.031 407.847 580.701 408.83 587.568 409.928C596.829 411.409 603.748 421.107 607.312 425.408C610.857 429.685 611.451 435.052 613.884 444.391C616.528 454.54 617.814 463.119 618.835 468.573C619.935 474.454 621.008 484.672 621.398 494.269C621.847 505.345 620.404 510.36 619.262 516.468C618.284 521.695 617.575 527.651 617.791 532.552C618.08 539.117 616.47 543.705 616.878 548.302C616.94 549.506 616.89 550.665 616.866 551.731C616.842 552.797 616.846 553.734 616.685 555.37" stroke="#F7DF19" stroke-width="11.3678" stroke-linecap="round"/>
<path d="M500.667 556.678C501.444 558.281 509.541 561.697 517.026 564.125C526.666 567.252 535.801 566.502 546.062 568.189C560.784 570.609 576.788 569.956 588.314 570.062C601.843 566.636 605.557 564.951 609.059 563.685C610.522 563.09 611.347 562.59 613.361 560.232" stroke="#F7DF19" stroke-width="11.3678" stroke-linecap="round"/>
<path d="M497.233 452.204L498.408 453.203" stroke="#F7DF19" stroke-width="11.3678" stroke-linecap="round"/>
<path d="M537.538 455.719L535.706 457.398" stroke="#F7DF19" stroke-width="11.3678" stroke-linecap="round"/>
<path d="M1237.78 291.524C1229.85 286.012 1205.25 270.804 1188.63 267.33C1173.36 264.138 1166.29 292.944 1151.35 323.512C1146.9 332.613 1149.75 344.515 1155.76 358.864C1169.77 392.32 1221.78 399.93 1235.22 408.073C1241.37 411.804 1245.12 418.075 1248.98 422.987C1250.92 425.453 1250.39 429.368 1249.25 433.699C1242.92 457.572 1207.05 472.545 1189.38 477.991C1185.61 478.437 1182.07 478.513 1178.28 478.062C1174.5 477.611 1170.58 476.632 1165.51 477.793" stroke="#F7DF19" stroke-width="42.2756" stroke-linecap="round"/>
</svg>
