<svg width="452" height="426" viewBox="0 0 452 426" fill="none" xmlns="http://www.w3.org/2000/svg">
<path d="M55.2452 148.138C56.941 175.786 58.6369 203.435 61.6396 227.921C64.6423 252.408 68.9003 272.896 73.4472 290.614C77.9941 308.332 82.7008 322.658 85.2483 329.205C87.7958 335.751 88.0415 334.083 88.2946 332.365" stroke="#F7DF19" stroke-width="10.7627" stroke-linecap="round"/>
<path d="M48.285 176.51C60.7568 163.307 77.1731 154.219 82.0485 154.899C85.2025 155.339 89.503 157.205 91.7697 159.42C102.827 170.229 86.5156 197.554 82.4118 211.001C77.526 223.688 72.1535 235.728 68.2572 242.661C66.5432 245.459 65.3636 246.793 63.8106 249.11" stroke="#F7DF19" stroke-width="10.7627" stroke-linecap="round"/>
<path d="M101.171 272.36C113.652 304.219 118.682 317.671 116.218 312.187C112.552 304.029 112.082 295.462 110.057 286.74C108.597 280.448 106.536 269.384 105.815 260.394C105.639 258.206 107.227 255.435 109.646 253.092C123.371 245.919 131.911 242.931 134.989 241.733C136.8 241.136 139.113 240.559 139.948 238.346" stroke="#F7DF19" stroke-width="10.7627" stroke-linecap="round"/>
<path d="M170.569 240.372C165.549 249.463 156.559 272.564 156.476 280.707C156.388 289.322 175.33 294.222 183.982 295.025C187.2 295.323 190.114 292.787 192.794 290.739C204.93 281.468 207 255.558 206.726 251.39C201.429 241.507 191.272 232.18 183.311 227.202C180.128 225.702 175.458 224.031 170.647 222.309" stroke="#F7DF19" stroke-width="10.7627" stroke-linecap="round"/>
<path d="M205.984 194.83C208.262 196.347 212.969 202.97 216.802 209.151C220.271 214.748 223.766 221.392 228.433 230.149C233.152 239.004 239.467 246.868 245.054 252.608C248.013 255.647 250.645 258.338 253.007 258.667C257.472 246.308 258.461 219.78 259.005 197.903C259.028 194.314 259.162 192.958 259.638 190.616" stroke="#F7DF19" stroke-width="10.7627" stroke-linecap="round"/>
<path d="M299.647 177.434C293.848 188.704 283.72 214.985 283.197 221.89C282.385 232.603 291.556 241.563 297.717 247.678C300.303 250.245 303.409 251.146 306.03 251.733C308.805 252.354 311.966 251.026 315.316 249.575C323.027 246.235 330.11 221.197 332.327 202.644C333.177 195.537 328.551 189.926 323.546 184.581C316.058 177.283 308.424 172.774 305.927 171.349C304.565 170.68 303.008 170.123 301.404 169.55" stroke="#F7DF19" stroke-width="10.7627" stroke-linecap="round"/>
<path d="M328.504 146.648C328.816 146.76 329.127 146.871 334.074 157.597C339.021 168.322 348.595 189.658 353.615 201.384C358.635 213.109 358.813 214.577 361.15 218.989" stroke="#F7DF19" stroke-width="10.7627" stroke-linecap="round"/>
<path d="M386.472 158.681C368.358 173.973 357.958 182.873 357.062 184.856C357.234 185.817 358.679 186.685 364.716 189.027C370.753 191.368 381.338 195.155 392.244 199.058" stroke="#F7DF19" stroke-width="10.7627" stroke-linecap="round"/>
<path d="M419.493 111.37C418.871 111.147 412.877 112.164 403.113 117.146C398.108 119.7 396.682 127.535 396.755 132.239C396.978 146.631 420.116 150.969 433.766 157.433C438.576 159.711 437.074 163.358 435.912 165.624C430.438 172.03 421.932 176.052 414.345 178.861C412.53 179.456 410.528 180.145 407.521 180.516" stroke="#F7DF19" stroke-width="10.7627" stroke-linecap="round"/>
</svg>
