<svg width="465" height="383" viewBox="0 0 465 383" fill="none" xmlns="http://www.w3.org/2000/svg">
<path d="M42.8979 27.3941C67.9834 93.1338 83.2507 131.282 87.3195 139.323C94.5262 153.566 87.0049 63.6887 90.3071 52.7078C91.5641 48.5281 96.0209 48.9774 100.352 51.8108C120.32 64.8756 124.47 83.3682 136.217 98.7734C138.883 102.269 140.234 105.567 141.43 106.03C165.824 115.473 151.652 36.5335 156.867 36.5348C159.601 36.5356 162.496 37.0888 165.576 39.9967C175.785 55.9133 182.217 69.7187 190.532 86.3349C193.814 93.3516 195.192 97.4947 200.795 103.858" stroke="#F7DF19" stroke-width="22.6829" stroke-linecap="round"/>
<path d="M228.244 37.5596C234.693 47.9152 243.747 61.1553 263.862 88.9027C268.734 95.6229 273.241 98.2666 278.513 99.8004C283.784 101.334 290.205 101.269 298.106 96.7173C317.025 85.8177 325.286 69.467 325.646 61.8073C326.128 51.5343 316.636 43.313 309.922 37.8285C307.539 35.8827 315.321 65.2867 327.9 102.429C335.453 124.729 340.933 133.912 341.595 139.715C341.963 142.944 341.082 146.83 339.001 149.304C333.329 152.741 304.711 148.678 264.16 139.876C248.527 136.13 242.937 133.848 232.994 129.402" stroke="#F7DF19" stroke-width="22.6829" stroke-linecap="round"/>
<path d="M58.4447 241.837C37.9718 242.35 27.9377 249.892 20.596 255.802C16.7646 258.886 14.8507 264.437 14.3902 271.081C14.1647 274.335 14.9655 277.38 17.7679 280.293C24.4514 287.24 60.0665 294.36 104.1 305.141C119.273 308.857 118.241 314.591 117.297 317.728C115.743 322.895 113.068 326.372 111.052 330.058C108.828 334.124 104.079 337.037 94.6903 338.679C87.6187 339.915 75.4312 336.931 68.6231 333.241C61.815 329.551 60.6451 323.958 60.2158 319.869C59.7865 315.78 60.1333 313.364 60.4906 310.875" stroke="#F7DF19" stroke-width="22.6829" stroke-linecap="round"/>
<path d="M131.252 234.354C131.525 239.325 134.075 252.588 139.035 271.704C141.586 280.118 144.205 285.919 148.21 292.74C152.215 299.562 157.526 307.229 165.506 318.476" stroke="#F7DF19" stroke-width="22.6829" stroke-linecap="round"/>
<path d="M227.068 233.163C199.028 249.851 177.4 263.828 168.103 272.947C165.037 275.955 169.164 278.622 176.839 280.485C221.952 285.257 252.029 284.568 256.989 284.787C258.083 284.451 256.289 283.207 250.258 279.83" stroke="#F7DF19" stroke-width="22.6829" stroke-linecap="round"/>
<path d="M268.495 225.659C268.425 226.142 268.356 226.626 271.734 232.296C275.112 237.967 281.939 248.81 286.526 255.536C291.112 262.262 293.251 264.541 295.244 268.354" stroke="#F7DF19" stroke-width="22.6829" stroke-linecap="round"/>
<path d="M301.787 181.121C312.265 204.325 321.249 222.217 328.372 233.185C335.29 242.151 342.014 251.112 348.201 259.958C351.148 263.9 353.7 266.732 356.33 269.65" stroke="#F7DF19" stroke-width="22.6829" stroke-linecap="round"/>
<path d="M378.161 159.206C379.538 177.307 389.612 210.405 400.848 235.145C402.643 238.414 403.746 241.038 405.107 243.736C406.468 246.435 408.054 249.129 412.196 255.253" stroke="#F7DF19" stroke-width="22.6829" stroke-linecap="round"/>
<path d="M237.562 180.869C237.493 181.353 237.424 181.836 237.145 183.776C236.867 185.716 236.381 189.099 240.274 193.214" stroke="#F7DF19" stroke-width="22.6829" stroke-linecap="round"/>
<path d="M458.997 156.956C453.487 156.956 438.288 161.073 425.428 165.948C418.501 168.575 412.588 173.569 409.802 177.717C401.027 190.781 441.615 197.127 452.375 206.473C454.983 208.739 456.876 210.975 457.937 214.437C458.997 217.899 458.997 222.702 458.311 226.549C457.625 230.395 456.253 233.14 450.68 240.126" stroke="#F7DF19" stroke-width="12" stroke-linecap="round"/>
</svg>
