<svg width="742" height="541" viewBox="0 0 742 541" fill="none" xmlns="http://www.w3.org/2000/svg">
<path d="M73.3359 53.7973C79.3528 88.6701 84.464 117.26 87.5535 154.986C88.6313 182.088 88.7142 225.345 88.2815 249.934C87.8487 274.522 86.8979 279.13 85.9182 283.878" stroke="#F7DF19" stroke-width="35.3372" stroke-linecap="round"/>
<path d="M17.6723 67.7903C17.91 66.6383 38.6597 50.4824 71.1247 26.8528C84.4119 17.1817 104.011 21.9092 130.913 29.562C148.587 34.5897 155.093 54.1968 161.143 73.2981C166.791 91.1286 165.053 112.031 159.765 131.841C156.041 145.791 145.715 153.01 137.718 158.03C124.684 160.828 110.624 161.584 98.0663 159.294C92.9971 158.548 90.5741 158.649 88.0777 158.752" stroke="#F7DF19" stroke-width="35.3372" stroke-linecap="round"/>
<path d="M264.205 151.871C246.19 148.154 234.124 148.067 222.536 151.135C210.682 154.274 207.794 178.304 206.041 194.121C204.947 203.991 208.232 214.282 213.933 232.119C220.089 251.379 236.219 257.692 250.233 263.331C264.456 269.055 282.205 264.232 295.293 255.13C314.242 241.954 312.691 222.587 315.979 202.373C318.857 184.678 298.835 175.432 290.254 165.463C285.17 162.275 278.768 157.934 272.406 152.08C269.599 149.363 267.652 147.159 262.514 142.423" stroke="#F7DF19" stroke-width="35.3372" stroke-linecap="round"/>
<path d="M371.266 135.744C375.65 140.871 380.223 153.898 388.206 200.323C391.244 217.997 390.145 229.378 392.207 234.071C397.722 246.623 397.526 205.513 399.234 191.325C401.703 170.822 399.315 158.565 402.929 146.872C419.263 140.825 441.249 137.463 447.653 135.754C450.82 135.179 453.819 135.197 455.164 134.856" stroke="#F7DF19" stroke-width="35.3372" stroke-linecap="round"/>
<path d="M506.835 87.2824C509.579 111.998 515.448 142.382 521.65 185.71C525.324 211.379 533.364 223.132 538.421 235.404C539.718 238.552 541.748 241.241 544.13 242.97C557.729 252.84 580.379 233.506 584.013 229.124C585.562 226.113 586.513 221.505 585.86 217.394C585.207 213.283 582.921 209.808 580.566 206.229" stroke="#F7DF19" stroke-width="35.3372" stroke-linecap="round"/>
<path d="M514.4 165.278C519.008 166.229 524.262 167.313 530.185 167.934C536.346 167.404 542.557 166.847 550.05 165.682C554.543 164.498 560.441 162.111 564.771 159.292" stroke="#F7DF19" stroke-width="35.3372" stroke-linecap="round"/>
<path d="M660.084 120.722C646.453 125.135 639.347 141.849 632.791 158.977C626.147 176.34 626.098 191.328 629.399 198.66C635.17 211.483 660.057 217.17 682.394 220.578C690.826 221.864 693.685 219.304 696.566 217.16C710.835 206.539 714.334 184.146 718.593 172.277C721.222 164.953 723.234 158.648 723.328 153.827C719.032 143.823 704.644 131.791 682.744 119.083C672.446 114.174 663.806 112.391 654.903 110.554" stroke="#F7DF19" stroke-width="35.3372" stroke-linecap="round"/>
<path d="M131.045 347.393C125.37 345.467 119.694 343.542 116.027 343.704C104.005 344.236 101.829 364.415 96.6466 398.434C92.8034 423.662 102.618 445.614 111.697 473.179C126.615 501.873 138.594 521.834 141.047 521.985C141.405 520.018 139.964 513.903 136.568 506.955" stroke="#F7DF19" stroke-width="35.3372" stroke-linecap="round"/>
<path d="M96.6101 461.433C99.1324 462.289 104.227 461.908 115.663 460.483C134.678 459.519 150.191 458.326 157.315 456.141C160.644 454.777 163.391 452.897 164.346 443.93" stroke="#F7DF19" stroke-width="35.3372" stroke-linecap="round"/>
<path d="M278.729 414.552C261.964 415.917 247.431 429.418 237.345 444.45C232.853 451.143 229.835 464.447 228.255 472.21C226.676 479.974 227.926 482.508 235.179 488.166C254.899 503.547 272.427 512.567 281.742 512.212C297.89 511.596 308.663 500.037 312.944 493.702C322.402 479.703 326.297 462.763 329.696 446.529C331.086 439.894 326.958 435.946 318.829 431.739C310.699 427.531 297.457 423.038 289.165 419.873C280.874 416.708 277.935 415.007 269.823 409.399" stroke="#F7DF19" stroke-width="35.3372" stroke-linecap="round"/>
<path d="M356.257 355.623C362.173 359.037 373.474 384.01 385.037 416.094C389.965 429.767 387.892 446.522 394.458 463.72C397.102 467.483 400.244 470.659 403.224 473.46C406.205 476.262 408.93 478.593 411.09 482.905" stroke="#F7DF19" stroke-width="35.3372" stroke-linecap="round"/>
<path d="M439.62 398.826C442.953 405.582 445.266 415.594 447.933 430.659C450.002 439.192 453.526 449.53 455.86 456.437C458.193 463.345 459.229 466.509 462.822 474.888" stroke="#F7DF19" stroke-width="35.3372" stroke-linecap="round"/>
<path d="M509.465 442.102C513.993 445.422 519.193 448.34 529.121 451.074C536.087 452.993 547.351 454.413 554.613 455.346C564.852 456.661 569.211 455.675 571.568 454.383C576.137 451.88 578.659 445.34 580.196 437.86C580.81 434.87 580.201 432.809 579.595 431.517C578.795 429.812 574.589 427.636 568.959 424.819C564.451 422.563 557.682 421.984 547.806 421.298C542.315 420.916 535.817 421.065 528.927 421.895C522.037 422.725 514.944 424.385 509.857 425.995C497.65 429.857 495.151 433.403 491.794 435.614C491.011 436.13 490.422 436.605 490.036 437.14C489.649 437.675 489.498 438.278 489.949 438.816C491.107 440.198 498.43 441.178 512.555 442.701C520.769 443.586 531.207 443.62 538.684 443.398C546.162 443.176 550.387 442.422 552.866 441.882C555.345 441.343 555.948 441.041 557.028 440.73" stroke="#F7DF19" stroke-width="10.2837" stroke-linecap="round"/>
<path d="M521.355 416.491C521.355 416.793 521.355 418.307 521.28 420.063C521.196 422.019 520.441 411.506 519.91 402.44C519.225 390.733 519.371 381.597 520.054 378.631C521.579 372.019 527.74 366.963 534.659 363.759C537.218 362.574 540.947 361.786 548.548 361.317C556.149 360.848 567.619 360.999 575.263 361.379C582.907 361.758 586.378 362.362 590.959 363.578C601.209 366.301 608.838 369.83 613.32 373.624C619.5 378.855 622.722 384.615 624.394 387.657C626.14 390.834 629.116 396.026 632.612 405.063C634.624 410.262 636.41 416.967 638.1 430.047C639.79 443.126 641.148 462.444 642.074 473.452C643 484.46 643.453 486.572 643.535 487.359C643.618 488.146 643.316 487.542 643.005 486.92" stroke="#F7DF19" stroke-width="10.2837" stroke-linecap="round"/>
<path d="M530.98 455.822C530.98 458.237 530.98 466.121 531.282 478.446C532.187 488.659 533.111 493.927 533.795 494.389C534.177 494.247 534.629 493.342 535.096 492.409" stroke="#F7DF19" stroke-width="10.2837" stroke-linecap="round"/>
<path d="M544.68 402.314C544.227 403.672 543.774 405.031 543.541 404.598C543.308 404.166 543.308 401.902 543.308 401.642C543.308 401.381 543.308 403.192 543.765 405.058" stroke="#F7DF19" stroke-width="10.2837" stroke-linecap="round"/>
<path d="M565.26 403.229C565.26 403.38 565.26 403.53 565.184 403.986C565.109 404.441 564.958 405.195 564.88 405.961C564.802 406.727 564.802 407.482 564.802 408.259" stroke="#F7DF19" stroke-width="10.2837" stroke-linecap="round"/>
<path d="M535.324 496.979C537.194 496.979 542.628 497.655 550.236 498.173C553.094 498.367 555.795 499.028 558.776 499.112C561.598 499.192 571.769 499.54 585.846 499.371C595.311 499.257 598.985 497.153 602.317 495.96C607.082 494.253 609.915 493.568 613.244 492.459C616.845 491.26 620.322 490.495 624.424 489.643C628.622 488.77 632.439 486.572 636.206 485.63C637.064 485.374 637.909 485.036 638.767 484.862C639.625 484.688 640.47 484.688 641.853 483.663" stroke="#F7DF19" stroke-width="10.2797" stroke-linecap="round"/>
</svg>
